<mxfile host="app.diagrams.net" agent="Mozilla/5.0 (Windows NT 10.0; Win64; x64) AppleWebKit/537.36 (KHTML, like Gecko) Chrome/131.0.0.0 Safari/537.36" version="26.0.5">
  <diagram name="第 1 页" id="JkMTJcsDwciwHIPAk4sC">
    <mxGraphModel dx="2567" dy="2554" grid="1" gridSize="10" guides="1" tooltips="1" connect="1" arrows="1" fold="1" page="1" pageScale="1" pageWidth="827" pageHeight="1169" math="0" shadow="0">
      <root>
        <mxCell id="0" />
        <mxCell id="1" parent="0" />
        <mxCell id="H_baRf7KBt0K7RaULhYe-188" value="" style="ellipse;whiteSpace=wrap;html=1;aspect=fixed;dashed=1;strokeColor=#6C8EBF;" vertex="1" parent="1">
          <mxGeometry x="740" y="445" width="168" height="168" as="geometry" />
        </mxCell>
        <mxCell id="H_baRf7KBt0K7RaULhYe-190" value="" style="ellipse;whiteSpace=wrap;html=1;aspect=fixed;dashed=1;strokeColor=#D79B00;" vertex="1" parent="1">
          <mxGeometry x="370" y="485" width="50" height="50" as="geometry" />
        </mxCell>
        <mxCell id="H_baRf7KBt0K7RaULhYe-189" value="" style="ellipse;whiteSpace=wrap;html=1;aspect=fixed;dashed=1;strokeColor=#D79B00;" vertex="1" parent="1">
          <mxGeometry x="300" y="525" width="50" height="50" as="geometry" />
        </mxCell>
        <mxCell id="H_baRf7KBt0K7RaULhYe-82" value="" style="ellipse;whiteSpace=wrap;html=1;aspect=fixed;dashed=1;strokeColor=#82B366;" vertex="1" parent="1">
          <mxGeometry x="823" y="-50" width="245" height="245" as="geometry" />
        </mxCell>
        <mxCell id="H_baRf7KBt0K7RaULhYe-80" value="" style="ellipse;whiteSpace=wrap;html=1;aspect=fixed;dashed=1;strokeColor=#6C8EBF;" vertex="1" parent="1">
          <mxGeometry x="560" y="25" width="140" height="140" as="geometry" />
        </mxCell>
        <mxCell id="H_baRf7KBt0K7RaULhYe-79" value="" style="ellipse;whiteSpace=wrap;html=1;aspect=fixed;dashed=1;strokeColor=#D79B00;" vertex="1" parent="1">
          <mxGeometry x="590" y="65" width="50" height="50" as="geometry" />
        </mxCell>
        <mxCell id="H_baRf7KBt0K7RaULhYe-74" value="" style="ellipse;whiteSpace=wrap;html=1;aspect=fixed;dashed=1;strokeColor=#D79B00;" vertex="1" parent="1">
          <mxGeometry x="310" y="62.5" width="50" height="50" as="geometry" />
        </mxCell>
        <mxCell id="H_baRf7KBt0K7RaULhYe-1" value="" style="endArrow=none;html=1;rounded=0;" edge="1" parent="1">
          <mxGeometry width="50" height="50" relative="1" as="geometry">
            <mxPoint x="130" y="600" as="sourcePoint" />
            <mxPoint x="130" as="targetPoint" />
          </mxGeometry>
        </mxCell>
        <mxCell id="H_baRf7KBt0K7RaULhYe-2" value="" style="endArrow=none;dashed=1;html=1;rounded=0;" edge="1" parent="1">
          <mxGeometry width="50" height="50" relative="1" as="geometry">
            <mxPoint x="130" y="200" as="sourcePoint" />
            <mxPoint x="1160" y="200" as="targetPoint" />
          </mxGeometry>
        </mxCell>
        <mxCell id="H_baRf7KBt0K7RaULhYe-3" value="" style="endArrow=none;dashed=1;html=1;rounded=0;" edge="1" parent="1">
          <mxGeometry width="50" height="50" relative="1" as="geometry">
            <mxPoint x="130" y="360" as="sourcePoint" />
            <mxPoint x="1160" y="360" as="targetPoint" />
          </mxGeometry>
        </mxCell>
        <mxCell id="H_baRf7KBt0K7RaULhYe-4" value="A" style="ellipse;whiteSpace=wrap;html=1;aspect=fixed;" vertex="1" parent="1">
          <mxGeometry x="10" y="180" width="30" height="30" as="geometry" />
        </mxCell>
        <mxCell id="H_baRf7KBt0K7RaULhYe-17" style="edgeStyle=none;shape=connector;rounded=0;orthogonalLoop=1;jettySize=auto;html=1;entryX=0;entryY=0.5;entryDx=0;entryDy=0;strokeColor=default;align=center;verticalAlign=middle;fontFamily=Helvetica;fontSize=11;fontColor=default;labelBackgroundColor=default;endArrow=none;endFill=0;" edge="1" parent="1" source="H_baRf7KBt0K7RaULhYe-5" target="H_baRf7KBt0K7RaULhYe-6">
          <mxGeometry relative="1" as="geometry" />
        </mxCell>
        <mxCell id="H_baRf7KBt0K7RaULhYe-18" style="edgeStyle=none;shape=connector;rounded=0;orthogonalLoop=1;jettySize=auto;html=1;entryX=1;entryY=1;entryDx=0;entryDy=0;strokeColor=default;align=center;verticalAlign=middle;fontFamily=Helvetica;fontSize=11;fontColor=default;labelBackgroundColor=default;endArrow=none;endFill=0;" edge="1" parent="1" source="H_baRf7KBt0K7RaULhYe-5" target="H_baRf7KBt0K7RaULhYe-9">
          <mxGeometry relative="1" as="geometry" />
        </mxCell>
        <mxCell id="H_baRf7KBt0K7RaULhYe-19" style="edgeStyle=none;shape=connector;rounded=0;orthogonalLoop=1;jettySize=auto;html=1;entryX=0.5;entryY=1;entryDx=0;entryDy=0;strokeColor=default;align=center;verticalAlign=middle;fontFamily=Helvetica;fontSize=11;fontColor=default;labelBackgroundColor=default;endArrow=none;endFill=0;" edge="1" parent="1" source="H_baRf7KBt0K7RaULhYe-5" target="H_baRf7KBt0K7RaULhYe-4">
          <mxGeometry relative="1" as="geometry" />
        </mxCell>
        <mxCell id="H_baRf7KBt0K7RaULhYe-5" value="D" style="ellipse;whiteSpace=wrap;html=1;aspect=fixed;" vertex="1" parent="1">
          <mxGeometry x="-20" y="240" width="30" height="30" as="geometry" />
        </mxCell>
        <mxCell id="H_baRf7KBt0K7RaULhYe-6" value="B" style="ellipse;whiteSpace=wrap;html=1;aspect=fixed;" vertex="1" parent="1">
          <mxGeometry x="40" y="250" width="30" height="30" as="geometry" />
        </mxCell>
        <mxCell id="H_baRf7KBt0K7RaULhYe-16" style="edgeStyle=none;shape=connector;rounded=0;orthogonalLoop=1;jettySize=auto;html=1;entryX=1;entryY=1;entryDx=0;entryDy=0;strokeColor=default;align=center;verticalAlign=middle;fontFamily=Helvetica;fontSize=11;fontColor=default;labelBackgroundColor=default;endArrow=none;endFill=0;" edge="1" parent="1" source="H_baRf7KBt0K7RaULhYe-7" target="H_baRf7KBt0K7RaULhYe-10">
          <mxGeometry relative="1" as="geometry" />
        </mxCell>
        <mxCell id="H_baRf7KBt0K7RaULhYe-7" value="H" style="ellipse;whiteSpace=wrap;html=1;aspect=fixed;" vertex="1" parent="1">
          <mxGeometry x="-40" y="300" width="30" height="30" as="geometry" />
        </mxCell>
        <mxCell id="H_baRf7KBt0K7RaULhYe-20" style="edgeStyle=none;shape=connector;rounded=0;orthogonalLoop=1;jettySize=auto;html=1;entryX=0.5;entryY=0;entryDx=0;entryDy=0;strokeColor=default;align=center;verticalAlign=middle;fontFamily=Helvetica;fontSize=11;fontColor=default;labelBackgroundColor=default;endArrow=none;endFill=0;" edge="1" parent="1" source="H_baRf7KBt0K7RaULhYe-8" target="H_baRf7KBt0K7RaULhYe-9">
          <mxGeometry relative="1" as="geometry" />
        </mxCell>
        <mxCell id="H_baRf7KBt0K7RaULhYe-8" value="C" style="ellipse;whiteSpace=wrap;html=1;aspect=fixed;" vertex="1" parent="1">
          <mxGeometry x="-40" y="150" width="30" height="30" as="geometry" />
        </mxCell>
        <mxCell id="H_baRf7KBt0K7RaULhYe-14" style="edgeStyle=none;shape=connector;rounded=0;orthogonalLoop=1;jettySize=auto;html=1;entryX=1;entryY=0.5;entryDx=0;entryDy=0;strokeColor=default;align=center;verticalAlign=middle;fontFamily=Helvetica;fontSize=11;fontColor=default;labelBackgroundColor=default;endArrow=none;endFill=0;" edge="1" parent="1" source="H_baRf7KBt0K7RaULhYe-9" target="H_baRf7KBt0K7RaULhYe-12">
          <mxGeometry relative="1" as="geometry" />
        </mxCell>
        <mxCell id="H_baRf7KBt0K7RaULhYe-15" style="edgeStyle=none;shape=connector;rounded=0;orthogonalLoop=1;jettySize=auto;html=1;entryX=1;entryY=0;entryDx=0;entryDy=0;strokeColor=default;align=center;verticalAlign=middle;fontFamily=Helvetica;fontSize=11;fontColor=default;labelBackgroundColor=default;endArrow=none;endFill=0;" edge="1" parent="1" source="H_baRf7KBt0K7RaULhYe-9" target="H_baRf7KBt0K7RaULhYe-10">
          <mxGeometry relative="1" as="geometry" />
        </mxCell>
        <mxCell id="H_baRf7KBt0K7RaULhYe-9" value="F" style="ellipse;whiteSpace=wrap;html=1;aspect=fixed;" vertex="1" parent="1">
          <mxGeometry x="-70" y="220" width="30" height="30" as="geometry" />
        </mxCell>
        <mxCell id="H_baRf7KBt0K7RaULhYe-10" value="G" style="ellipse;whiteSpace=wrap;html=1;aspect=fixed;" vertex="1" parent="1">
          <mxGeometry x="-90" y="280" width="30" height="30" as="geometry" />
        </mxCell>
        <mxCell id="H_baRf7KBt0K7RaULhYe-13" style="rounded=0;orthogonalLoop=1;jettySize=auto;html=1;endArrow=none;endFill=0;entryX=0;entryY=0.5;entryDx=0;entryDy=0;" edge="1" parent="1" source="H_baRf7KBt0K7RaULhYe-11" target="H_baRf7KBt0K7RaULhYe-8">
          <mxGeometry relative="1" as="geometry">
            <mxPoint x="-50" y="160" as="targetPoint" />
          </mxGeometry>
        </mxCell>
        <mxCell id="H_baRf7KBt0K7RaULhYe-11" value="E" style="ellipse;whiteSpace=wrap;html=1;aspect=fixed;" vertex="1" parent="1">
          <mxGeometry x="-130" y="160" width="30" height="30" as="geometry" />
        </mxCell>
        <mxCell id="H_baRf7KBt0K7RaULhYe-12" value="I" style="ellipse;whiteSpace=wrap;html=1;aspect=fixed;" vertex="1" parent="1">
          <mxGeometry x="-140" y="230" width="30" height="30" as="geometry" />
        </mxCell>
        <mxCell id="H_baRf7KBt0K7RaULhYe-22" value="A" style="ellipse;whiteSpace=wrap;html=1;aspect=fixed;" vertex="1" parent="1">
          <mxGeometry x="400" y="30" width="30" height="30" as="geometry" />
        </mxCell>
        <mxCell id="H_baRf7KBt0K7RaULhYe-23" style="edgeStyle=none;shape=connector;rounded=0;orthogonalLoop=1;jettySize=auto;html=1;entryX=0;entryY=0.5;entryDx=0;entryDy=0;strokeColor=default;align=center;verticalAlign=middle;fontFamily=Helvetica;fontSize=11;fontColor=default;labelBackgroundColor=default;endArrow=none;endFill=0;" edge="1" parent="1" source="H_baRf7KBt0K7RaULhYe-26" target="H_baRf7KBt0K7RaULhYe-27">
          <mxGeometry relative="1" as="geometry" />
        </mxCell>
        <mxCell id="H_baRf7KBt0K7RaULhYe-24" style="edgeStyle=none;shape=connector;rounded=0;orthogonalLoop=1;jettySize=auto;html=1;entryX=1;entryY=1;entryDx=0;entryDy=0;strokeColor=default;align=center;verticalAlign=middle;fontFamily=Helvetica;fontSize=11;fontColor=default;labelBackgroundColor=default;endArrow=none;endFill=0;" edge="1" parent="1" source="H_baRf7KBt0K7RaULhYe-26" target="H_baRf7KBt0K7RaULhYe-34">
          <mxGeometry relative="1" as="geometry" />
        </mxCell>
        <mxCell id="H_baRf7KBt0K7RaULhYe-25" style="edgeStyle=none;shape=connector;rounded=0;orthogonalLoop=1;jettySize=auto;html=1;entryX=0.5;entryY=1;entryDx=0;entryDy=0;strokeColor=default;align=center;verticalAlign=middle;fontFamily=Helvetica;fontSize=11;fontColor=default;labelBackgroundColor=default;endArrow=none;endFill=0;" edge="1" parent="1" source="H_baRf7KBt0K7RaULhYe-26" target="H_baRf7KBt0K7RaULhYe-22">
          <mxGeometry relative="1" as="geometry" />
        </mxCell>
        <mxCell id="H_baRf7KBt0K7RaULhYe-26" value="D" style="ellipse;whiteSpace=wrap;html=1;aspect=fixed;" vertex="1" parent="1">
          <mxGeometry x="370" y="90" width="30" height="30" as="geometry" />
        </mxCell>
        <mxCell id="H_baRf7KBt0K7RaULhYe-27" value="B" style="ellipse;whiteSpace=wrap;html=1;aspect=fixed;" vertex="1" parent="1">
          <mxGeometry x="430" y="100" width="30" height="30" as="geometry" />
        </mxCell>
        <mxCell id="H_baRf7KBt0K7RaULhYe-28" style="edgeStyle=none;shape=connector;rounded=0;orthogonalLoop=1;jettySize=auto;html=1;entryX=1;entryY=1;entryDx=0;entryDy=0;strokeColor=default;align=center;verticalAlign=middle;fontFamily=Helvetica;fontSize=11;fontColor=default;labelBackgroundColor=default;endArrow=none;endFill=0;" edge="1" parent="1" source="H_baRf7KBt0K7RaULhYe-29" target="H_baRf7KBt0K7RaULhYe-35">
          <mxGeometry relative="1" as="geometry" />
        </mxCell>
        <mxCell id="H_baRf7KBt0K7RaULhYe-29" value="H" style="ellipse;whiteSpace=wrap;html=1;aspect=fixed;" vertex="1" parent="1">
          <mxGeometry x="350" y="150" width="30" height="30" as="geometry" />
        </mxCell>
        <mxCell id="H_baRf7KBt0K7RaULhYe-30" style="edgeStyle=none;shape=connector;rounded=0;orthogonalLoop=1;jettySize=auto;html=1;entryX=0.5;entryY=0;entryDx=0;entryDy=0;strokeColor=default;align=center;verticalAlign=middle;fontFamily=Helvetica;fontSize=11;fontColor=default;labelBackgroundColor=default;endArrow=none;endFill=0;" edge="1" parent="1" source="H_baRf7KBt0K7RaULhYe-31" target="H_baRf7KBt0K7RaULhYe-34">
          <mxGeometry relative="1" as="geometry" />
        </mxCell>
        <mxCell id="H_baRf7KBt0K7RaULhYe-31" value="C" style="ellipse;whiteSpace=wrap;html=1;aspect=fixed;" vertex="1" parent="1">
          <mxGeometry x="350" width="30" height="30" as="geometry" />
        </mxCell>
        <mxCell id="H_baRf7KBt0K7RaULhYe-33" style="edgeStyle=none;shape=connector;rounded=0;orthogonalLoop=1;jettySize=auto;html=1;entryX=1;entryY=0;entryDx=0;entryDy=0;strokeColor=default;align=center;verticalAlign=middle;fontFamily=Helvetica;fontSize=11;fontColor=default;labelBackgroundColor=default;endArrow=none;endFill=0;" edge="1" parent="1" source="H_baRf7KBt0K7RaULhYe-34" target="H_baRf7KBt0K7RaULhYe-35">
          <mxGeometry relative="1" as="geometry" />
        </mxCell>
        <mxCell id="H_baRf7KBt0K7RaULhYe-77" style="edgeStyle=none;shape=connector;rounded=0;orthogonalLoop=1;jettySize=auto;html=1;entryX=1;entryY=0.5;entryDx=0;entryDy=0;strokeColor=default;align=center;verticalAlign=middle;fontFamily=Helvetica;fontSize=11;fontColor=default;labelBackgroundColor=default;endArrow=none;endFill=0;" edge="1" parent="1" source="H_baRf7KBt0K7RaULhYe-34" target="H_baRf7KBt0K7RaULhYe-38">
          <mxGeometry relative="1" as="geometry" />
        </mxCell>
        <mxCell id="H_baRf7KBt0K7RaULhYe-34" value="F" style="ellipse;whiteSpace=wrap;html=1;aspect=fixed;fillColor=#ffe6cc;strokeColor=#d79b00;" vertex="1" parent="1">
          <mxGeometry x="320" y="70" width="30" height="30" as="geometry" />
        </mxCell>
        <mxCell id="H_baRf7KBt0K7RaULhYe-35" value="G" style="ellipse;whiteSpace=wrap;html=1;aspect=fixed;" vertex="1" parent="1">
          <mxGeometry x="300" y="130" width="30" height="30" as="geometry" />
        </mxCell>
        <mxCell id="H_baRf7KBt0K7RaULhYe-36" style="rounded=0;orthogonalLoop=1;jettySize=auto;html=1;endArrow=none;endFill=0;entryX=0;entryY=0.5;entryDx=0;entryDy=0;" edge="1" parent="1" source="H_baRf7KBt0K7RaULhYe-37" target="H_baRf7KBt0K7RaULhYe-31">
          <mxGeometry relative="1" as="geometry">
            <mxPoint x="340" y="10" as="targetPoint" />
          </mxGeometry>
        </mxCell>
        <mxCell id="H_baRf7KBt0K7RaULhYe-37" value="E" style="ellipse;whiteSpace=wrap;html=1;aspect=fixed;" vertex="1" parent="1">
          <mxGeometry x="260" y="10" width="30" height="30" as="geometry" />
        </mxCell>
        <mxCell id="H_baRf7KBt0K7RaULhYe-38" value="I" style="ellipse;whiteSpace=wrap;html=1;aspect=fixed;" vertex="1" parent="1">
          <mxGeometry x="250" y="80" width="30" height="30" as="geometry" />
        </mxCell>
        <mxCell id="H_baRf7KBt0K7RaULhYe-39" value="A" style="ellipse;whiteSpace=wrap;html=1;aspect=fixed;" vertex="1" parent="1">
          <mxGeometry x="690" y="15" width="30" height="30" as="geometry" />
        </mxCell>
        <mxCell id="H_baRf7KBt0K7RaULhYe-40" style="edgeStyle=none;shape=connector;rounded=0;orthogonalLoop=1;jettySize=auto;html=1;entryX=0;entryY=0.5;entryDx=0;entryDy=0;strokeColor=default;align=center;verticalAlign=middle;fontFamily=Helvetica;fontSize=11;fontColor=default;labelBackgroundColor=default;endArrow=none;endFill=0;" edge="1" parent="1" source="H_baRf7KBt0K7RaULhYe-43" target="H_baRf7KBt0K7RaULhYe-44">
          <mxGeometry relative="1" as="geometry" />
        </mxCell>
        <mxCell id="H_baRf7KBt0K7RaULhYe-41" style="edgeStyle=none;shape=connector;rounded=0;orthogonalLoop=1;jettySize=auto;html=1;entryX=1;entryY=1;entryDx=0;entryDy=0;strokeColor=default;align=center;verticalAlign=middle;fontFamily=Helvetica;fontSize=11;fontColor=default;labelBackgroundColor=default;endArrow=none;endFill=0;startArrow=openAsync;startFill=0;" edge="1" parent="1" source="H_baRf7KBt0K7RaULhYe-43" target="H_baRf7KBt0K7RaULhYe-51">
          <mxGeometry relative="1" as="geometry" />
        </mxCell>
        <mxCell id="H_baRf7KBt0K7RaULhYe-42" style="edgeStyle=none;shape=connector;rounded=0;orthogonalLoop=1;jettySize=auto;html=1;entryX=0.5;entryY=1;entryDx=0;entryDy=0;strokeColor=default;align=center;verticalAlign=middle;fontFamily=Helvetica;fontSize=11;fontColor=default;labelBackgroundColor=default;endArrow=none;endFill=0;" edge="1" parent="1" source="H_baRf7KBt0K7RaULhYe-43" target="H_baRf7KBt0K7RaULhYe-39">
          <mxGeometry relative="1" as="geometry" />
        </mxCell>
        <mxCell id="H_baRf7KBt0K7RaULhYe-43" value="D" style="ellipse;whiteSpace=wrap;html=1;aspect=fixed;fillColor=#dae8fc;strokeColor=#6c8ebf;" vertex="1" parent="1">
          <mxGeometry x="650" y="90" width="30" height="30" as="geometry" />
        </mxCell>
        <mxCell id="H_baRf7KBt0K7RaULhYe-44" value="B" style="ellipse;whiteSpace=wrap;html=1;aspect=fixed;" vertex="1" parent="1">
          <mxGeometry x="720" y="105" width="30" height="30" as="geometry" />
        </mxCell>
        <mxCell id="H_baRf7KBt0K7RaULhYe-45" style="edgeStyle=none;shape=connector;rounded=0;orthogonalLoop=1;jettySize=auto;html=1;entryX=1;entryY=1;entryDx=0;entryDy=0;strokeColor=default;align=center;verticalAlign=middle;fontFamily=Helvetica;fontSize=11;fontColor=default;labelBackgroundColor=default;endArrow=none;endFill=0;" edge="1" parent="1" source="H_baRf7KBt0K7RaULhYe-46" target="H_baRf7KBt0K7RaULhYe-52">
          <mxGeometry relative="1" as="geometry" />
        </mxCell>
        <mxCell id="H_baRf7KBt0K7RaULhYe-46" value="H" style="ellipse;whiteSpace=wrap;html=1;aspect=fixed;" vertex="1" parent="1">
          <mxGeometry x="650" y="165" width="30" height="30" as="geometry" />
        </mxCell>
        <mxCell id="H_baRf7KBt0K7RaULhYe-47" style="edgeStyle=none;shape=connector;rounded=0;orthogonalLoop=1;jettySize=auto;html=1;entryX=0.5;entryY=0;entryDx=0;entryDy=0;strokeColor=default;align=center;verticalAlign=middle;fontFamily=Helvetica;fontSize=11;fontColor=default;labelBackgroundColor=default;endArrow=none;endFill=0;startArrow=openAsync;startFill=0;" edge="1" parent="1" source="H_baRf7KBt0K7RaULhYe-48" target="H_baRf7KBt0K7RaULhYe-51">
          <mxGeometry relative="1" as="geometry" />
        </mxCell>
        <mxCell id="H_baRf7KBt0K7RaULhYe-48" value="C" style="ellipse;whiteSpace=wrap;html=1;aspect=fixed;fillColor=#dae8fc;strokeColor=#6c8ebf;" vertex="1" parent="1">
          <mxGeometry x="620" y="30" width="30" height="30" as="geometry" />
        </mxCell>
        <mxCell id="H_baRf7KBt0K7RaULhYe-49" style="edgeStyle=none;shape=connector;rounded=0;orthogonalLoop=1;jettySize=auto;html=1;entryX=1;entryY=0.5;entryDx=0;entryDy=0;strokeColor=default;align=center;verticalAlign=middle;fontFamily=Helvetica;fontSize=11;fontColor=default;labelBackgroundColor=default;endArrow=none;endFill=0;" edge="1" parent="1" source="H_baRf7KBt0K7RaULhYe-51" target="H_baRf7KBt0K7RaULhYe-55">
          <mxGeometry relative="1" as="geometry" />
        </mxCell>
        <mxCell id="H_baRf7KBt0K7RaULhYe-50" style="edgeStyle=none;shape=connector;rounded=0;orthogonalLoop=1;jettySize=auto;html=1;entryX=0.5;entryY=0;entryDx=0;entryDy=0;strokeColor=default;align=center;verticalAlign=middle;fontFamily=Helvetica;fontSize=11;fontColor=default;labelBackgroundColor=default;endArrow=openAsync;endFill=0;" edge="1" parent="1" source="H_baRf7KBt0K7RaULhYe-51" target="H_baRf7KBt0K7RaULhYe-52">
          <mxGeometry relative="1" as="geometry" />
        </mxCell>
        <mxCell id="H_baRf7KBt0K7RaULhYe-51" value="F" style="ellipse;whiteSpace=wrap;html=1;aspect=fixed;fillColor=#ffe6cc;strokeColor=#d79b00;" vertex="1" parent="1">
          <mxGeometry x="600" y="75" width="30" height="30" as="geometry" />
        </mxCell>
        <mxCell id="H_baRf7KBt0K7RaULhYe-52" value="G" style="ellipse;whiteSpace=wrap;html=1;aspect=fixed;fillColor=#dae8fc;strokeColor=#6c8ebf;" vertex="1" parent="1">
          <mxGeometry x="590" y="130" width="30" height="30" as="geometry" />
        </mxCell>
        <mxCell id="H_baRf7KBt0K7RaULhYe-53" style="rounded=0;orthogonalLoop=1;jettySize=auto;html=1;endArrow=none;endFill=0;entryX=0;entryY=0.5;entryDx=0;entryDy=0;" edge="1" parent="1" source="H_baRf7KBt0K7RaULhYe-54" target="H_baRf7KBt0K7RaULhYe-48">
          <mxGeometry relative="1" as="geometry">
            <mxPoint x="620" y="15" as="targetPoint" />
          </mxGeometry>
        </mxCell>
        <mxCell id="H_baRf7KBt0K7RaULhYe-54" value="E" style="ellipse;whiteSpace=wrap;html=1;aspect=fixed;" vertex="1" parent="1">
          <mxGeometry x="530" y="15" width="30" height="30" as="geometry" />
        </mxCell>
        <mxCell id="H_baRf7KBt0K7RaULhYe-55" value="I" style="ellipse;whiteSpace=wrap;html=1;aspect=fixed;" vertex="1" parent="1">
          <mxGeometry x="520" y="85" width="30" height="30" as="geometry" />
        </mxCell>
        <mxCell id="H_baRf7KBt0K7RaULhYe-56" value="&lt;font style=&quot;color: rgb(255, 179, 102); font-size: 20px;&quot;&gt;&lt;b style=&quot;&quot;&gt;Selected input nodes in the current batch&lt;/b&gt;&lt;/font&gt;&lt;div&gt;&lt;font style=&quot;font-size: 20px; color: rgb(108, 142, 191);&quot;&gt;Nodes sampled in the 1st GNN layer&lt;/font&gt;&lt;/div&gt;&lt;div&gt;&lt;font style=&quot;font-size: 20px; color: rgb(130, 179, 102);&quot;&gt;Nodes sampled in the 2nd GNN layer&lt;/font&gt;&lt;/div&gt;" style="text;html=1;align=left;verticalAlign=middle;whiteSpace=wrap;rounded=0;fontFamily=Helvetica;fontSize=11;fontColor=default;labelBackgroundColor=default;" vertex="1" parent="1">
          <mxGeometry x="1210" y="48" width="530" height="94" as="geometry" />
        </mxCell>
        <mxCell id="H_baRf7KBt0K7RaULhYe-86" value="" style="ellipse;whiteSpace=wrap;html=1;aspect=fixed;dashed=1;strokeColor=#6C8EBF;" vertex="1" parent="1">
          <mxGeometry x="867" y="20" width="140" height="140" as="geometry" />
        </mxCell>
        <mxCell id="H_baRf7KBt0K7RaULhYe-87" value="" style="ellipse;whiteSpace=wrap;html=1;aspect=fixed;dashed=1;strokeColor=#D79B00;" vertex="1" parent="1">
          <mxGeometry x="897" y="60" width="50" height="50" as="geometry" />
        </mxCell>
        <mxCell id="H_baRf7KBt0K7RaULhYe-88" value="A" style="ellipse;whiteSpace=wrap;html=1;aspect=fixed;fillColor=#d5e8d4;strokeColor=#82b366;" vertex="1" parent="1">
          <mxGeometry x="1007" y="10" width="30" height="30" as="geometry" />
        </mxCell>
        <mxCell id="H_baRf7KBt0K7RaULhYe-89" style="edgeStyle=none;shape=connector;rounded=0;orthogonalLoop=1;jettySize=auto;html=1;entryX=0;entryY=0.5;entryDx=0;entryDy=0;strokeColor=default;align=center;verticalAlign=middle;fontFamily=Helvetica;fontSize=11;fontColor=default;labelBackgroundColor=default;endArrow=none;endFill=0;" edge="1" parent="1" source="H_baRf7KBt0K7RaULhYe-92" target="H_baRf7KBt0K7RaULhYe-93">
          <mxGeometry relative="1" as="geometry" />
        </mxCell>
        <mxCell id="H_baRf7KBt0K7RaULhYe-90" style="edgeStyle=none;shape=connector;rounded=0;orthogonalLoop=1;jettySize=auto;html=1;entryX=1;entryY=1;entryDx=0;entryDy=0;strokeColor=default;align=center;verticalAlign=middle;fontFamily=Helvetica;fontSize=11;fontColor=default;labelBackgroundColor=default;endArrow=none;endFill=0;startArrow=openAsync;startFill=0;" edge="1" parent="1" source="H_baRf7KBt0K7RaULhYe-92" target="H_baRf7KBt0K7RaULhYe-100">
          <mxGeometry relative="1" as="geometry" />
        </mxCell>
        <mxCell id="H_baRf7KBt0K7RaULhYe-91" style="edgeStyle=none;shape=connector;rounded=0;orthogonalLoop=1;jettySize=auto;html=1;entryX=0;entryY=1;entryDx=0;entryDy=0;strokeColor=default;align=center;verticalAlign=middle;fontFamily=Helvetica;fontSize=11;fontColor=default;labelBackgroundColor=default;endArrow=openAsync;endFill=0;" edge="1" parent="1" source="H_baRf7KBt0K7RaULhYe-92" target="H_baRf7KBt0K7RaULhYe-88">
          <mxGeometry relative="1" as="geometry" />
        </mxCell>
        <mxCell id="H_baRf7KBt0K7RaULhYe-92" value="D" style="ellipse;whiteSpace=wrap;html=1;aspect=fixed;fillColor=#dae8fc;strokeColor=#6c8ebf;" vertex="1" parent="1">
          <mxGeometry x="957" y="85" width="30" height="30" as="geometry" />
        </mxCell>
        <mxCell id="H_baRf7KBt0K7RaULhYe-93" value="B" style="ellipse;whiteSpace=wrap;html=1;aspect=fixed;" vertex="1" parent="1">
          <mxGeometry x="1064.5" y="105" width="30" height="30" as="geometry" />
        </mxCell>
        <mxCell id="H_baRf7KBt0K7RaULhYe-94" style="edgeStyle=none;shape=connector;rounded=0;orthogonalLoop=1;jettySize=auto;html=1;entryX=1;entryY=1;entryDx=0;entryDy=0;strokeColor=default;align=center;verticalAlign=middle;fontFamily=Helvetica;fontSize=11;fontColor=default;labelBackgroundColor=default;endArrow=none;endFill=0;startArrow=openAsync;startFill=0;" edge="1" parent="1" source="H_baRf7KBt0K7RaULhYe-95" target="H_baRf7KBt0K7RaULhYe-101">
          <mxGeometry relative="1" as="geometry" />
        </mxCell>
        <mxCell id="H_baRf7KBt0K7RaULhYe-95" value="H" style="ellipse;whiteSpace=wrap;html=1;aspect=fixed;fillColor=#d5e8d4;strokeColor=#82b366;" vertex="1" parent="1">
          <mxGeometry x="927" y="165" width="30" height="30" as="geometry" />
        </mxCell>
        <mxCell id="H_baRf7KBt0K7RaULhYe-96" style="edgeStyle=none;shape=connector;rounded=0;orthogonalLoop=1;jettySize=auto;html=1;entryX=0.5;entryY=0;entryDx=0;entryDy=0;strokeColor=default;align=center;verticalAlign=middle;fontFamily=Helvetica;fontSize=11;fontColor=default;labelBackgroundColor=default;endArrow=none;endFill=0;startArrow=openAsync;startFill=0;" edge="1" parent="1" source="H_baRf7KBt0K7RaULhYe-97" target="H_baRf7KBt0K7RaULhYe-100">
          <mxGeometry relative="1" as="geometry" />
        </mxCell>
        <mxCell id="H_baRf7KBt0K7RaULhYe-97" value="C" style="ellipse;whiteSpace=wrap;html=1;aspect=fixed;fillColor=#dae8fc;strokeColor=#6c8ebf;" vertex="1" parent="1">
          <mxGeometry x="927" y="25" width="30" height="30" as="geometry" />
        </mxCell>
        <mxCell id="H_baRf7KBt0K7RaULhYe-98" style="edgeStyle=none;shape=connector;rounded=0;orthogonalLoop=1;jettySize=auto;html=1;entryX=1;entryY=0.5;entryDx=0;entryDy=0;strokeColor=default;align=center;verticalAlign=middle;fontFamily=Helvetica;fontSize=11;fontColor=default;labelBackgroundColor=default;endArrow=none;endFill=0;" edge="1" parent="1" source="H_baRf7KBt0K7RaULhYe-100" target="H_baRf7KBt0K7RaULhYe-104">
          <mxGeometry relative="1" as="geometry" />
        </mxCell>
        <mxCell id="H_baRf7KBt0K7RaULhYe-99" style="edgeStyle=none;shape=connector;rounded=0;orthogonalLoop=1;jettySize=auto;html=1;entryX=0.5;entryY=0;entryDx=0;entryDy=0;strokeColor=default;align=center;verticalAlign=middle;fontFamily=Helvetica;fontSize=11;fontColor=default;labelBackgroundColor=default;endArrow=openAsync;endFill=0;" edge="1" parent="1" source="H_baRf7KBt0K7RaULhYe-100" target="H_baRf7KBt0K7RaULhYe-101">
          <mxGeometry relative="1" as="geometry" />
        </mxCell>
        <mxCell id="H_baRf7KBt0K7RaULhYe-100" value="F" style="ellipse;whiteSpace=wrap;html=1;aspect=fixed;fillColor=#ffe6cc;strokeColor=#d79b00;" vertex="1" parent="1">
          <mxGeometry x="907" y="70" width="30" height="30" as="geometry" />
        </mxCell>
        <mxCell id="H_baRf7KBt0K7RaULhYe-101" value="G" style="ellipse;whiteSpace=wrap;html=1;aspect=fixed;fillColor=#dae8fc;strokeColor=#6c8ebf;" vertex="1" parent="1">
          <mxGeometry x="897" y="125" width="30" height="30" as="geometry" />
        </mxCell>
        <mxCell id="H_baRf7KBt0K7RaULhYe-102" style="rounded=0;orthogonalLoop=1;jettySize=auto;html=1;endArrow=none;endFill=0;entryX=0;entryY=0.5;entryDx=0;entryDy=0;startArrow=openAsync;startFill=0;" edge="1" parent="1" source="H_baRf7KBt0K7RaULhYe-103" target="H_baRf7KBt0K7RaULhYe-97">
          <mxGeometry relative="1" as="geometry">
            <mxPoint x="927" y="10" as="targetPoint" />
          </mxGeometry>
        </mxCell>
        <mxCell id="H_baRf7KBt0K7RaULhYe-103" value="E" style="ellipse;whiteSpace=wrap;html=1;aspect=fixed;fillColor=#d5e8d4;strokeColor=#82b366;" vertex="1" parent="1">
          <mxGeometry x="877" y="-5" width="30" height="30" as="geometry" />
        </mxCell>
        <mxCell id="H_baRf7KBt0K7RaULhYe-104" value="I" style="ellipse;whiteSpace=wrap;html=1;aspect=fixed;" vertex="1" parent="1">
          <mxGeometry x="797" y="10" width="30" height="30" as="geometry" />
        </mxCell>
        <mxCell id="H_baRf7KBt0K7RaULhYe-231" style="edgeStyle=none;shape=connector;rounded=0;orthogonalLoop=1;jettySize=auto;html=1;entryX=0;entryY=0.5;entryDx=0;entryDy=0;strokeColor=default;align=center;verticalAlign=middle;fontFamily=Helvetica;fontSize=11;fontColor=default;labelBackgroundColor=default;endArrow=openAsync;endFill=0;" edge="1" parent="1" source="H_baRf7KBt0K7RaULhYe-106" target="H_baRf7KBt0K7RaULhYe-126">
          <mxGeometry relative="1" as="geometry" />
        </mxCell>
        <mxCell id="H_baRf7KBt0K7RaULhYe-106" value="A" style="ellipse;whiteSpace=wrap;html=1;aspect=fixed;" vertex="1" parent="1">
          <mxGeometry x="250" y="220" width="30" height="30" as="geometry" />
        </mxCell>
        <mxCell id="H_baRf7KBt0K7RaULhYe-232" style="edgeStyle=none;shape=connector;rounded=0;orthogonalLoop=1;jettySize=auto;html=1;entryX=0;entryY=0;entryDx=0;entryDy=0;strokeColor=default;align=center;verticalAlign=middle;fontFamily=Helvetica;fontSize=11;fontColor=default;labelBackgroundColor=default;endArrow=openAsync;endFill=0;" edge="1" parent="1" source="H_baRf7KBt0K7RaULhYe-107" target="H_baRf7KBt0K7RaULhYe-126">
          <mxGeometry relative="1" as="geometry" />
        </mxCell>
        <mxCell id="H_baRf7KBt0K7RaULhYe-107" value="B" style="ellipse;whiteSpace=wrap;html=1;aspect=fixed;" vertex="1" parent="1">
          <mxGeometry x="293" y="220" width="30" height="30" as="geometry" />
        </mxCell>
        <mxCell id="H_baRf7KBt0K7RaULhYe-233" style="edgeStyle=none;shape=connector;rounded=0;orthogonalLoop=1;jettySize=auto;html=1;entryX=0;entryY=0;entryDx=0;entryDy=0;strokeColor=default;align=center;verticalAlign=middle;fontFamily=Helvetica;fontSize=11;fontColor=default;labelBackgroundColor=default;endArrow=openAsync;endFill=0;" edge="1" parent="1" source="H_baRf7KBt0K7RaULhYe-116" target="H_baRf7KBt0K7RaULhYe-127">
          <mxGeometry relative="1" as="geometry" />
        </mxCell>
        <mxCell id="H_baRf7KBt0K7RaULhYe-234" style="edgeStyle=none;shape=connector;rounded=0;orthogonalLoop=1;jettySize=auto;html=1;entryX=0;entryY=0;entryDx=0;entryDy=0;strokeColor=default;align=center;verticalAlign=middle;fontFamily=Helvetica;fontSize=11;fontColor=default;labelBackgroundColor=default;endArrow=openAsync;endFill=0;" edge="1" parent="1" source="H_baRf7KBt0K7RaULhYe-116" target="H_baRf7KBt0K7RaULhYe-128">
          <mxGeometry relative="1" as="geometry" />
        </mxCell>
        <mxCell id="H_baRf7KBt0K7RaULhYe-116" value="C" style="ellipse;whiteSpace=wrap;html=1;aspect=fixed;" vertex="1" parent="1">
          <mxGeometry x="335" y="220" width="30" height="30" as="geometry" />
        </mxCell>
        <mxCell id="H_baRf7KBt0K7RaULhYe-235" style="edgeStyle=none;shape=connector;rounded=0;orthogonalLoop=1;jettySize=auto;html=1;entryX=0.5;entryY=0;entryDx=0;entryDy=0;strokeColor=default;align=center;verticalAlign=middle;fontFamily=Helvetica;fontSize=11;fontColor=default;labelBackgroundColor=default;endArrow=openAsync;endFill=0;" edge="1" parent="1" source="H_baRf7KBt0K7RaULhYe-117" target="H_baRf7KBt0K7RaULhYe-123">
          <mxGeometry relative="1" as="geometry" />
        </mxCell>
        <mxCell id="H_baRf7KBt0K7RaULhYe-236" style="edgeStyle=none;shape=connector;rounded=0;orthogonalLoop=1;jettySize=auto;html=1;entryX=0.5;entryY=0;entryDx=0;entryDy=0;strokeColor=default;align=center;verticalAlign=middle;fontFamily=Helvetica;fontSize=11;fontColor=default;labelBackgroundColor=default;endArrow=openAsync;endFill=0;" edge="1" parent="1" source="H_baRf7KBt0K7RaULhYe-117" target="H_baRf7KBt0K7RaULhYe-124">
          <mxGeometry relative="1" as="geometry" />
        </mxCell>
        <mxCell id="H_baRf7KBt0K7RaULhYe-237" style="edgeStyle=none;shape=connector;rounded=0;orthogonalLoop=1;jettySize=auto;html=1;entryX=0.5;entryY=0;entryDx=0;entryDy=0;strokeColor=default;align=center;verticalAlign=middle;fontFamily=Helvetica;fontSize=11;fontColor=default;labelBackgroundColor=default;endArrow=openAsync;endFill=0;" edge="1" parent="1" source="H_baRf7KBt0K7RaULhYe-117" target="H_baRf7KBt0K7RaULhYe-128">
          <mxGeometry relative="1" as="geometry" />
        </mxCell>
        <mxCell id="H_baRf7KBt0K7RaULhYe-117" value="D" style="ellipse;whiteSpace=wrap;html=1;aspect=fixed;" vertex="1" parent="1">
          <mxGeometry x="378" y="220" width="30" height="30" as="geometry" />
        </mxCell>
        <mxCell id="H_baRf7KBt0K7RaULhYe-238" style="edgeStyle=none;shape=connector;rounded=0;orthogonalLoop=1;jettySize=auto;html=1;entryX=0.5;entryY=0;entryDx=0;entryDy=0;strokeColor=default;align=center;verticalAlign=middle;fontFamily=Helvetica;fontSize=11;fontColor=default;labelBackgroundColor=default;endArrow=openAsync;endFill=0;" edge="1" parent="1" source="H_baRf7KBt0K7RaULhYe-118" target="H_baRf7KBt0K7RaULhYe-125">
          <mxGeometry relative="1" as="geometry" />
        </mxCell>
        <mxCell id="H_baRf7KBt0K7RaULhYe-118" value="E" style="ellipse;whiteSpace=wrap;html=1;aspect=fixed;" vertex="1" parent="1">
          <mxGeometry x="420" y="220" width="30" height="30" as="geometry" />
        </mxCell>
        <mxCell id="H_baRf7KBt0K7RaULhYe-239" style="edgeStyle=none;shape=connector;rounded=0;orthogonalLoop=1;jettySize=auto;html=1;entryX=1;entryY=0;entryDx=0;entryDy=0;strokeColor=default;align=center;verticalAlign=middle;fontFamily=Helvetica;fontSize=11;fontColor=default;labelBackgroundColor=default;endArrow=openAsync;endFill=0;" edge="1" parent="1" source="H_baRf7KBt0K7RaULhYe-119" target="H_baRf7KBt0K7RaULhYe-125">
          <mxGeometry relative="1" as="geometry" />
        </mxCell>
        <mxCell id="H_baRf7KBt0K7RaULhYe-240" style="edgeStyle=none;shape=connector;rounded=0;orthogonalLoop=1;jettySize=auto;html=1;entryX=0.5;entryY=0;entryDx=0;entryDy=0;strokeColor=default;align=center;verticalAlign=middle;fontFamily=Helvetica;fontSize=11;fontColor=default;labelBackgroundColor=default;endArrow=openAsync;endFill=0;" edge="1" parent="1" source="H_baRf7KBt0K7RaULhYe-119" target="H_baRf7KBt0K7RaULhYe-126">
          <mxGeometry relative="1" as="geometry" />
        </mxCell>
        <mxCell id="H_baRf7KBt0K7RaULhYe-241" style="edgeStyle=none;shape=connector;rounded=0;orthogonalLoop=1;jettySize=auto;html=1;entryX=0;entryY=0;entryDx=0;entryDy=0;strokeColor=default;align=center;verticalAlign=middle;fontFamily=Helvetica;fontSize=11;fontColor=default;labelBackgroundColor=default;endArrow=openAsync;endFill=0;" edge="1" parent="1" source="H_baRf7KBt0K7RaULhYe-119" target="H_baRf7KBt0K7RaULhYe-129">
          <mxGeometry relative="1" as="geometry" />
        </mxCell>
        <mxCell id="H_baRf7KBt0K7RaULhYe-242" style="edgeStyle=none;shape=connector;rounded=0;orthogonalLoop=1;jettySize=auto;html=1;entryX=0.5;entryY=0;entryDx=0;entryDy=0;strokeColor=default;align=center;verticalAlign=middle;fontFamily=Helvetica;fontSize=11;fontColor=default;labelBackgroundColor=default;endArrow=openAsync;endFill=0;" edge="1" parent="1" source="H_baRf7KBt0K7RaULhYe-119" target="H_baRf7KBt0K7RaULhYe-131">
          <mxGeometry relative="1" as="geometry" />
        </mxCell>
        <mxCell id="H_baRf7KBt0K7RaULhYe-119" value="F" style="ellipse;whiteSpace=wrap;html=1;aspect=fixed;" vertex="1" parent="1">
          <mxGeometry x="463" y="220" width="30" height="30" as="geometry" />
        </mxCell>
        <mxCell id="H_baRf7KBt0K7RaULhYe-243" style="edgeStyle=none;shape=connector;rounded=0;orthogonalLoop=1;jettySize=auto;html=1;entryX=1;entryY=0;entryDx=0;entryDy=0;strokeColor=default;align=center;verticalAlign=middle;fontFamily=Helvetica;fontSize=11;fontColor=default;labelBackgroundColor=default;endArrow=openAsync;endFill=0;" edge="1" parent="1" source="H_baRf7KBt0K7RaULhYe-120" target="H_baRf7KBt0K7RaULhYe-128">
          <mxGeometry relative="1" as="geometry" />
        </mxCell>
        <mxCell id="H_baRf7KBt0K7RaULhYe-244" style="edgeStyle=none;shape=connector;rounded=0;orthogonalLoop=1;jettySize=auto;html=1;entryX=0;entryY=0;entryDx=0;entryDy=0;strokeColor=default;align=center;verticalAlign=middle;fontFamily=Helvetica;fontSize=11;fontColor=default;labelBackgroundColor=default;endArrow=openAsync;endFill=0;" edge="1" parent="1" source="H_baRf7KBt0K7RaULhYe-120" target="H_baRf7KBt0K7RaULhYe-130">
          <mxGeometry relative="1" as="geometry" />
        </mxCell>
        <mxCell id="H_baRf7KBt0K7RaULhYe-120" value="G" style="ellipse;whiteSpace=wrap;html=1;aspect=fixed;" vertex="1" parent="1">
          <mxGeometry x="505" y="220" width="30" height="30" as="geometry" />
        </mxCell>
        <mxCell id="H_baRf7KBt0K7RaULhYe-245" style="edgeStyle=none;shape=connector;rounded=0;orthogonalLoop=1;jettySize=auto;html=1;entryX=0.5;entryY=0;entryDx=0;entryDy=0;strokeColor=default;align=center;verticalAlign=middle;fontFamily=Helvetica;fontSize=11;fontColor=default;labelBackgroundColor=default;endArrow=openAsync;endFill=0;" edge="1" parent="1" source="H_baRf7KBt0K7RaULhYe-121" target="H_baRf7KBt0K7RaULhYe-129">
          <mxGeometry relative="1" as="geometry" />
        </mxCell>
        <mxCell id="H_baRf7KBt0K7RaULhYe-121" value="H" style="ellipse;whiteSpace=wrap;html=1;aspect=fixed;" vertex="1" parent="1">
          <mxGeometry x="548" y="220" width="30" height="30" as="geometry" />
        </mxCell>
        <mxCell id="H_baRf7KBt0K7RaULhYe-246" style="edgeStyle=none;shape=connector;rounded=0;orthogonalLoop=1;jettySize=auto;html=1;strokeColor=default;align=center;verticalAlign=middle;fontFamily=Helvetica;fontSize=11;fontColor=default;labelBackgroundColor=default;endArrow=openAsync;endFill=0;" edge="1" parent="1" source="H_baRf7KBt0K7RaULhYe-122">
          <mxGeometry relative="1" as="geometry">
            <mxPoint x="480" y="268" as="targetPoint" />
          </mxGeometry>
        </mxCell>
        <mxCell id="H_baRf7KBt0K7RaULhYe-122" value="I" style="ellipse;whiteSpace=wrap;html=1;aspect=fixed;" vertex="1" parent="1">
          <mxGeometry x="590" y="220" width="30" height="30" as="geometry" />
        </mxCell>
        <mxCell id="H_baRf7KBt0K7RaULhYe-247" style="edgeStyle=none;shape=connector;rounded=0;orthogonalLoop=1;jettySize=auto;html=1;entryX=0;entryY=0;entryDx=0;entryDy=0;strokeColor=default;align=center;verticalAlign=middle;fontFamily=Helvetica;fontSize=11;fontColor=default;labelBackgroundColor=default;endArrow=openAsync;endFill=0;" edge="1" parent="1" source="H_baRf7KBt0K7RaULhYe-123" target="H_baRf7KBt0K7RaULhYe-135">
          <mxGeometry relative="1" as="geometry" />
        </mxCell>
        <mxCell id="H_baRf7KBt0K7RaULhYe-123" value="A" style="ellipse;whiteSpace=wrap;html=1;aspect=fixed;" vertex="1" parent="1">
          <mxGeometry x="250" y="270" width="30" height="30" as="geometry" />
        </mxCell>
        <mxCell id="H_baRf7KBt0K7RaULhYe-249" style="edgeStyle=none;shape=connector;rounded=0;orthogonalLoop=1;jettySize=auto;html=1;entryX=0.5;entryY=0;entryDx=0;entryDy=0;strokeColor=default;align=center;verticalAlign=middle;fontFamily=Helvetica;fontSize=11;fontColor=default;labelBackgroundColor=default;endArrow=openAsync;endFill=0;" edge="1" parent="1" source="H_baRf7KBt0K7RaULhYe-124" target="H_baRf7KBt0K7RaULhYe-135">
          <mxGeometry relative="1" as="geometry" />
        </mxCell>
        <mxCell id="H_baRf7KBt0K7RaULhYe-124" value="B" style="ellipse;whiteSpace=wrap;html=1;aspect=fixed;" vertex="1" parent="1">
          <mxGeometry x="293" y="270" width="30" height="30" as="geometry" />
        </mxCell>
        <mxCell id="H_baRf7KBt0K7RaULhYe-250" style="edgeStyle=none;shape=connector;rounded=0;orthogonalLoop=1;jettySize=auto;html=1;strokeColor=default;align=center;verticalAlign=middle;fontFamily=Helvetica;fontSize=11;fontColor=default;labelBackgroundColor=default;endArrow=openAsync;endFill=0;" edge="1" parent="1" source="H_baRf7KBt0K7RaULhYe-125" target="H_baRf7KBt0K7RaULhYe-136">
          <mxGeometry relative="1" as="geometry" />
        </mxCell>
        <mxCell id="H_baRf7KBt0K7RaULhYe-251" style="edgeStyle=none;shape=connector;rounded=0;orthogonalLoop=1;jettySize=auto;html=1;entryX=0;entryY=0;entryDx=0;entryDy=0;strokeColor=default;align=center;verticalAlign=middle;fontFamily=Helvetica;fontSize=11;fontColor=default;labelBackgroundColor=default;endArrow=openAsync;endFill=0;" edge="1" parent="1" source="H_baRf7KBt0K7RaULhYe-125" target="H_baRf7KBt0K7RaULhYe-137">
          <mxGeometry relative="1" as="geometry" />
        </mxCell>
        <mxCell id="H_baRf7KBt0K7RaULhYe-125" value="C" style="ellipse;whiteSpace=wrap;html=1;aspect=fixed;" vertex="1" parent="1">
          <mxGeometry x="335" y="270" width="30" height="30" as="geometry" />
        </mxCell>
        <mxCell id="H_baRf7KBt0K7RaULhYe-252" style="edgeStyle=none;shape=connector;rounded=0;orthogonalLoop=1;jettySize=auto;html=1;entryX=0.5;entryY=0;entryDx=0;entryDy=0;strokeColor=default;align=center;verticalAlign=middle;fontFamily=Helvetica;fontSize=11;fontColor=default;labelBackgroundColor=default;endArrow=openAsync;endFill=0;" edge="1" parent="1" source="H_baRf7KBt0K7RaULhYe-126" target="H_baRf7KBt0K7RaULhYe-132">
          <mxGeometry relative="1" as="geometry" />
        </mxCell>
        <mxCell id="H_baRf7KBt0K7RaULhYe-253" style="edgeStyle=none;shape=connector;rounded=0;orthogonalLoop=1;jettySize=auto;html=1;entryX=0.5;entryY=0;entryDx=0;entryDy=0;strokeColor=default;align=center;verticalAlign=middle;fontFamily=Helvetica;fontSize=11;fontColor=default;labelBackgroundColor=default;endArrow=openAsync;endFill=0;" edge="1" parent="1" source="H_baRf7KBt0K7RaULhYe-126" target="H_baRf7KBt0K7RaULhYe-133">
          <mxGeometry relative="1" as="geometry" />
        </mxCell>
        <mxCell id="H_baRf7KBt0K7RaULhYe-254" style="edgeStyle=none;shape=connector;rounded=0;orthogonalLoop=1;jettySize=auto;html=1;entryX=0.5;entryY=0;entryDx=0;entryDy=0;strokeColor=default;align=center;verticalAlign=middle;fontFamily=Helvetica;fontSize=11;fontColor=default;labelBackgroundColor=default;endArrow=openAsync;endFill=0;" edge="1" parent="1" source="H_baRf7KBt0K7RaULhYe-126" target="H_baRf7KBt0K7RaULhYe-137">
          <mxGeometry relative="1" as="geometry" />
        </mxCell>
        <mxCell id="H_baRf7KBt0K7RaULhYe-126" value="D" style="ellipse;whiteSpace=wrap;html=1;aspect=fixed;" vertex="1" parent="1">
          <mxGeometry x="378" y="270" width="30" height="30" as="geometry" />
        </mxCell>
        <mxCell id="H_baRf7KBt0K7RaULhYe-255" style="edgeStyle=none;shape=connector;rounded=0;orthogonalLoop=1;jettySize=auto;html=1;strokeColor=default;align=center;verticalAlign=middle;fontFamily=Helvetica;fontSize=11;fontColor=default;labelBackgroundColor=default;endArrow=openAsync;endFill=0;" edge="1" parent="1" source="H_baRf7KBt0K7RaULhYe-127">
          <mxGeometry relative="1" as="geometry">
            <mxPoint x="350.0000000000002" y="320" as="targetPoint" />
          </mxGeometry>
        </mxCell>
        <mxCell id="H_baRf7KBt0K7RaULhYe-127" value="E" style="ellipse;whiteSpace=wrap;html=1;aspect=fixed;" vertex="1" parent="1">
          <mxGeometry x="420" y="270" width="30" height="30" as="geometry" />
        </mxCell>
        <mxCell id="H_baRf7KBt0K7RaULhYe-256" style="edgeStyle=none;shape=connector;rounded=0;orthogonalLoop=1;jettySize=auto;html=1;entryX=1;entryY=0;entryDx=0;entryDy=0;strokeColor=default;align=center;verticalAlign=middle;fontFamily=Helvetica;fontSize=11;fontColor=default;labelBackgroundColor=default;endArrow=openAsync;endFill=0;" edge="1" parent="1" source="H_baRf7KBt0K7RaULhYe-128" target="H_baRf7KBt0K7RaULhYe-134">
          <mxGeometry relative="1" as="geometry" />
        </mxCell>
        <mxCell id="H_baRf7KBt0K7RaULhYe-257" style="edgeStyle=none;shape=connector;rounded=0;orthogonalLoop=1;jettySize=auto;html=1;strokeColor=default;align=center;verticalAlign=middle;fontFamily=Helvetica;fontSize=11;fontColor=default;labelBackgroundColor=default;endArrow=openAsync;endFill=0;" edge="1" parent="1" source="H_baRf7KBt0K7RaULhYe-128">
          <mxGeometry relative="1" as="geometry">
            <mxPoint x="400.0000000000002" y="320" as="targetPoint" />
          </mxGeometry>
        </mxCell>
        <mxCell id="H_baRf7KBt0K7RaULhYe-258" style="edgeStyle=none;shape=connector;rounded=0;orthogonalLoop=1;jettySize=auto;html=1;entryX=0;entryY=0;entryDx=0;entryDy=0;strokeColor=default;align=center;verticalAlign=middle;fontFamily=Helvetica;fontSize=11;fontColor=default;labelBackgroundColor=default;endArrow=openAsync;endFill=0;" edge="1" parent="1" source="H_baRf7KBt0K7RaULhYe-128" target="H_baRf7KBt0K7RaULhYe-138">
          <mxGeometry relative="1" as="geometry" />
        </mxCell>
        <mxCell id="H_baRf7KBt0K7RaULhYe-259" style="edgeStyle=none;shape=connector;rounded=0;orthogonalLoop=1;jettySize=auto;html=1;entryX=0;entryY=0;entryDx=0;entryDy=0;strokeColor=default;align=center;verticalAlign=middle;fontFamily=Helvetica;fontSize=11;fontColor=default;labelBackgroundColor=default;endArrow=openAsync;endFill=0;" edge="1" parent="1" source="H_baRf7KBt0K7RaULhYe-128" target="H_baRf7KBt0K7RaULhYe-140">
          <mxGeometry relative="1" as="geometry" />
        </mxCell>
        <mxCell id="H_baRf7KBt0K7RaULhYe-128" value="F" style="ellipse;whiteSpace=wrap;html=1;aspect=fixed;" vertex="1" parent="1">
          <mxGeometry x="463" y="270" width="30" height="30" as="geometry" />
        </mxCell>
        <mxCell id="H_baRf7KBt0K7RaULhYe-260" style="edgeStyle=none;shape=connector;rounded=0;orthogonalLoop=1;jettySize=auto;html=1;entryX=1;entryY=0;entryDx=0;entryDy=0;strokeColor=default;align=center;verticalAlign=middle;fontFamily=Helvetica;fontSize=11;fontColor=default;labelBackgroundColor=default;endArrow=openAsync;endFill=0;" edge="1" parent="1" source="H_baRf7KBt0K7RaULhYe-129" target="H_baRf7KBt0K7RaULhYe-137">
          <mxGeometry relative="1" as="geometry" />
        </mxCell>
        <mxCell id="H_baRf7KBt0K7RaULhYe-321" style="edgeStyle=none;shape=connector;rounded=0;orthogonalLoop=1;jettySize=auto;html=1;entryX=0;entryY=0;entryDx=0;entryDy=0;strokeColor=default;align=center;verticalAlign=middle;fontFamily=Helvetica;fontSize=11;fontColor=default;labelBackgroundColor=default;endArrow=openAsync;endFill=0;" edge="1" parent="1" source="H_baRf7KBt0K7RaULhYe-129" target="H_baRf7KBt0K7RaULhYe-139">
          <mxGeometry relative="1" as="geometry" />
        </mxCell>
        <mxCell id="H_baRf7KBt0K7RaULhYe-129" value="G" style="ellipse;whiteSpace=wrap;html=1;aspect=fixed;" vertex="1" parent="1">
          <mxGeometry x="505" y="270" width="30" height="30" as="geometry" />
        </mxCell>
        <mxCell id="H_baRf7KBt0K7RaULhYe-261" style="edgeStyle=none;shape=connector;rounded=0;orthogonalLoop=1;jettySize=auto;html=1;entryX=0.5;entryY=0;entryDx=0;entryDy=0;strokeColor=default;align=center;verticalAlign=middle;fontFamily=Helvetica;fontSize=11;fontColor=default;labelBackgroundColor=default;endArrow=openAsync;endFill=0;" edge="1" parent="1" source="H_baRf7KBt0K7RaULhYe-130" target="H_baRf7KBt0K7RaULhYe-138">
          <mxGeometry relative="1" as="geometry" />
        </mxCell>
        <mxCell id="H_baRf7KBt0K7RaULhYe-130" value="H" style="ellipse;whiteSpace=wrap;html=1;aspect=fixed;" vertex="1" parent="1">
          <mxGeometry x="548" y="270" width="30" height="30" as="geometry" />
        </mxCell>
        <mxCell id="H_baRf7KBt0K7RaULhYe-131" value="I" style="ellipse;whiteSpace=wrap;html=1;aspect=fixed;" vertex="1" parent="1">
          <mxGeometry x="590" y="270" width="30" height="30" as="geometry" />
        </mxCell>
        <mxCell id="H_baRf7KBt0K7RaULhYe-132" value="A" style="ellipse;whiteSpace=wrap;html=1;aspect=fixed;" vertex="1" parent="1">
          <mxGeometry x="250" y="320" width="30" height="30" as="geometry" />
        </mxCell>
        <mxCell id="H_baRf7KBt0K7RaULhYe-133" value="B" style="ellipse;whiteSpace=wrap;html=1;aspect=fixed;" vertex="1" parent="1">
          <mxGeometry x="293" y="320" width="30" height="30" as="geometry" />
        </mxCell>
        <mxCell id="H_baRf7KBt0K7RaULhYe-134" value="C" style="ellipse;whiteSpace=wrap;html=1;aspect=fixed;" vertex="1" parent="1">
          <mxGeometry x="335" y="320" width="30" height="30" as="geometry" />
        </mxCell>
        <mxCell id="H_baRf7KBt0K7RaULhYe-135" value="D" style="ellipse;whiteSpace=wrap;html=1;aspect=fixed;" vertex="1" parent="1">
          <mxGeometry x="378" y="320" width="30" height="30" as="geometry" />
        </mxCell>
        <mxCell id="H_baRf7KBt0K7RaULhYe-136" value="E" style="ellipse;whiteSpace=wrap;html=1;aspect=fixed;" vertex="1" parent="1">
          <mxGeometry x="420" y="320" width="30" height="30" as="geometry" />
        </mxCell>
        <mxCell id="H_baRf7KBt0K7RaULhYe-137" value="F" style="ellipse;whiteSpace=wrap;html=1;aspect=fixed;" vertex="1" parent="1">
          <mxGeometry x="463" y="320" width="30" height="30" as="geometry" />
        </mxCell>
        <mxCell id="H_baRf7KBt0K7RaULhYe-138" value="G" style="ellipse;whiteSpace=wrap;html=1;aspect=fixed;" vertex="1" parent="1">
          <mxGeometry x="505" y="320" width="30" height="30" as="geometry" />
        </mxCell>
        <mxCell id="H_baRf7KBt0K7RaULhYe-139" value="H" style="ellipse;whiteSpace=wrap;html=1;aspect=fixed;" vertex="1" parent="1">
          <mxGeometry x="548" y="320" width="30" height="30" as="geometry" />
        </mxCell>
        <mxCell id="H_baRf7KBt0K7RaULhYe-140" value="I" style="ellipse;whiteSpace=wrap;html=1;aspect=fixed;" vertex="1" parent="1">
          <mxGeometry x="590" y="320" width="30" height="30" as="geometry" />
        </mxCell>
        <mxCell id="H_baRf7KBt0K7RaULhYe-171" value="A" style="ellipse;whiteSpace=wrap;html=1;aspect=fixed;" vertex="1" parent="1">
          <mxGeometry x="410" y="435" width="30" height="30" as="geometry" />
        </mxCell>
        <mxCell id="H_baRf7KBt0K7RaULhYe-172" style="edgeStyle=none;shape=connector;rounded=0;orthogonalLoop=1;jettySize=auto;html=1;entryX=0;entryY=0.5;entryDx=0;entryDy=0;strokeColor=default;align=center;verticalAlign=middle;fontFamily=Helvetica;fontSize=11;fontColor=default;labelBackgroundColor=default;endArrow=none;endFill=0;" edge="1" parent="1" source="H_baRf7KBt0K7RaULhYe-175" target="H_baRf7KBt0K7RaULhYe-176">
          <mxGeometry relative="1" as="geometry" />
        </mxCell>
        <mxCell id="H_baRf7KBt0K7RaULhYe-173" style="edgeStyle=none;shape=connector;rounded=0;orthogonalLoop=1;jettySize=auto;html=1;entryX=1;entryY=1;entryDx=0;entryDy=0;strokeColor=default;align=center;verticalAlign=middle;fontFamily=Helvetica;fontSize=11;fontColor=default;labelBackgroundColor=default;endArrow=none;endFill=0;" edge="1" parent="1" source="H_baRf7KBt0K7RaULhYe-175" target="H_baRf7KBt0K7RaULhYe-183">
          <mxGeometry relative="1" as="geometry" />
        </mxCell>
        <mxCell id="H_baRf7KBt0K7RaULhYe-174" style="edgeStyle=none;shape=connector;rounded=0;orthogonalLoop=1;jettySize=auto;html=1;entryX=0.5;entryY=1;entryDx=0;entryDy=0;strokeColor=default;align=center;verticalAlign=middle;fontFamily=Helvetica;fontSize=11;fontColor=default;labelBackgroundColor=default;endArrow=none;endFill=0;" edge="1" parent="1" source="H_baRf7KBt0K7RaULhYe-175" target="H_baRf7KBt0K7RaULhYe-171">
          <mxGeometry relative="1" as="geometry" />
        </mxCell>
        <mxCell id="H_baRf7KBt0K7RaULhYe-175" value="D" style="ellipse;whiteSpace=wrap;html=1;aspect=fixed;fillColor=#ffe6cc;strokeColor=#d79b00;" vertex="1" parent="1">
          <mxGeometry x="380" y="495" width="30" height="30" as="geometry" />
        </mxCell>
        <mxCell id="H_baRf7KBt0K7RaULhYe-176" value="B" style="ellipse;whiteSpace=wrap;html=1;aspect=fixed;" vertex="1" parent="1">
          <mxGeometry x="440" y="505" width="30" height="30" as="geometry" />
        </mxCell>
        <mxCell id="H_baRf7KBt0K7RaULhYe-177" style="edgeStyle=none;shape=connector;rounded=0;orthogonalLoop=1;jettySize=auto;html=1;entryX=1;entryY=1;entryDx=0;entryDy=0;strokeColor=default;align=center;verticalAlign=middle;fontFamily=Helvetica;fontSize=11;fontColor=default;labelBackgroundColor=default;endArrow=none;endFill=0;" edge="1" parent="1" source="H_baRf7KBt0K7RaULhYe-178" target="H_baRf7KBt0K7RaULhYe-184">
          <mxGeometry relative="1" as="geometry" />
        </mxCell>
        <mxCell id="H_baRf7KBt0K7RaULhYe-178" value="H" style="ellipse;whiteSpace=wrap;html=1;aspect=fixed;" vertex="1" parent="1">
          <mxGeometry x="360" y="555" width="30" height="30" as="geometry" />
        </mxCell>
        <mxCell id="H_baRf7KBt0K7RaULhYe-179" style="edgeStyle=none;shape=connector;rounded=0;orthogonalLoop=1;jettySize=auto;html=1;entryX=0.5;entryY=0;entryDx=0;entryDy=0;strokeColor=default;align=center;verticalAlign=middle;fontFamily=Helvetica;fontSize=11;fontColor=default;labelBackgroundColor=default;endArrow=none;endFill=0;" edge="1" parent="1" source="H_baRf7KBt0K7RaULhYe-180" target="H_baRf7KBt0K7RaULhYe-183">
          <mxGeometry relative="1" as="geometry" />
        </mxCell>
        <mxCell id="H_baRf7KBt0K7RaULhYe-180" value="C" style="ellipse;whiteSpace=wrap;html=1;aspect=fixed;" vertex="1" parent="1">
          <mxGeometry x="360" y="405" width="30" height="30" as="geometry" />
        </mxCell>
        <mxCell id="H_baRf7KBt0K7RaULhYe-181" style="edgeStyle=none;shape=connector;rounded=0;orthogonalLoop=1;jettySize=auto;html=1;entryX=1;entryY=0.5;entryDx=0;entryDy=0;strokeColor=default;align=center;verticalAlign=middle;fontFamily=Helvetica;fontSize=11;fontColor=default;labelBackgroundColor=default;endArrow=none;endFill=0;" edge="1" parent="1" source="H_baRf7KBt0K7RaULhYe-183" target="H_baRf7KBt0K7RaULhYe-187">
          <mxGeometry relative="1" as="geometry" />
        </mxCell>
        <mxCell id="H_baRf7KBt0K7RaULhYe-182" style="edgeStyle=none;shape=connector;rounded=0;orthogonalLoop=1;jettySize=auto;html=1;entryX=1;entryY=0;entryDx=0;entryDy=0;strokeColor=default;align=center;verticalAlign=middle;fontFamily=Helvetica;fontSize=11;fontColor=default;labelBackgroundColor=default;endArrow=none;endFill=0;" edge="1" parent="1" source="H_baRf7KBt0K7RaULhYe-183" target="H_baRf7KBt0K7RaULhYe-184">
          <mxGeometry relative="1" as="geometry" />
        </mxCell>
        <mxCell id="H_baRf7KBt0K7RaULhYe-183" value="F" style="ellipse;whiteSpace=wrap;html=1;aspect=fixed;" vertex="1" parent="1">
          <mxGeometry x="330" y="475" width="30" height="30" as="geometry" />
        </mxCell>
        <mxCell id="H_baRf7KBt0K7RaULhYe-184" value="G" style="ellipse;whiteSpace=wrap;html=1;aspect=fixed;fillColor=#ffe6cc;strokeColor=#d79b00;" vertex="1" parent="1">
          <mxGeometry x="310" y="535" width="30" height="30" as="geometry" />
        </mxCell>
        <mxCell id="H_baRf7KBt0K7RaULhYe-185" style="rounded=0;orthogonalLoop=1;jettySize=auto;html=1;endArrow=none;endFill=0;entryX=0;entryY=0.5;entryDx=0;entryDy=0;" edge="1" parent="1" source="H_baRf7KBt0K7RaULhYe-186" target="H_baRf7KBt0K7RaULhYe-180">
          <mxGeometry relative="1" as="geometry">
            <mxPoint x="350" y="415" as="targetPoint" />
          </mxGeometry>
        </mxCell>
        <mxCell id="H_baRf7KBt0K7RaULhYe-186" value="E" style="ellipse;whiteSpace=wrap;html=1;aspect=fixed;" vertex="1" parent="1">
          <mxGeometry x="270" y="415" width="30" height="30" as="geometry" />
        </mxCell>
        <mxCell id="H_baRf7KBt0K7RaULhYe-187" value="I" style="ellipse;whiteSpace=wrap;html=1;aspect=fixed;" vertex="1" parent="1">
          <mxGeometry x="260" y="485" width="30" height="30" as="geometry" />
        </mxCell>
        <mxCell id="H_baRf7KBt0K7RaULhYe-192" value="A" style="ellipse;whiteSpace=wrap;html=1;aspect=fixed;fillColor=#dae8fc;strokeColor=#6c8ebf;" vertex="1" parent="1">
          <mxGeometry x="837" y="455" width="30" height="30" as="geometry" />
        </mxCell>
        <mxCell id="H_baRf7KBt0K7RaULhYe-193" style="edgeStyle=none;shape=connector;rounded=0;orthogonalLoop=1;jettySize=auto;html=1;entryX=0;entryY=0.5;entryDx=0;entryDy=0;strokeColor=default;align=center;verticalAlign=middle;fontFamily=Helvetica;fontSize=11;fontColor=default;labelBackgroundColor=default;endArrow=openAsync;endFill=0;" edge="1" parent="1" source="H_baRf7KBt0K7RaULhYe-196" target="H_baRf7KBt0K7RaULhYe-197">
          <mxGeometry relative="1" as="geometry" />
        </mxCell>
        <mxCell id="H_baRf7KBt0K7RaULhYe-194" style="edgeStyle=none;shape=connector;rounded=0;orthogonalLoop=1;jettySize=auto;html=1;entryX=1;entryY=1;entryDx=0;entryDy=0;strokeColor=default;align=center;verticalAlign=middle;fontFamily=Helvetica;fontSize=11;fontColor=default;labelBackgroundColor=default;endArrow=openAsync;endFill=0;" edge="1" parent="1" source="H_baRf7KBt0K7RaULhYe-196" target="H_baRf7KBt0K7RaULhYe-204">
          <mxGeometry relative="1" as="geometry" />
        </mxCell>
        <mxCell id="H_baRf7KBt0K7RaULhYe-195" style="edgeStyle=none;shape=connector;rounded=0;orthogonalLoop=1;jettySize=auto;html=1;entryX=0.5;entryY=1;entryDx=0;entryDy=0;strokeColor=default;align=center;verticalAlign=middle;fontFamily=Helvetica;fontSize=11;fontColor=default;labelBackgroundColor=default;endArrow=openAsync;endFill=0;" edge="1" parent="1" source="H_baRf7KBt0K7RaULhYe-196" target="H_baRf7KBt0K7RaULhYe-192">
          <mxGeometry relative="1" as="geometry" />
        </mxCell>
        <mxCell id="H_baRf7KBt0K7RaULhYe-196" value="D" style="ellipse;whiteSpace=wrap;html=1;aspect=fixed;fillColor=#dae8fc;strokeColor=#6c8ebf;" vertex="1" parent="1">
          <mxGeometry x="813" y="512.5" width="30" height="30" as="geometry" />
        </mxCell>
        <mxCell id="H_baRf7KBt0K7RaULhYe-197" value="B" style="ellipse;whiteSpace=wrap;html=1;aspect=fixed;fillColor=#dae8fc;strokeColor=#6c8ebf;" vertex="1" parent="1">
          <mxGeometry x="868" y="505" width="30" height="30" as="geometry" />
        </mxCell>
        <mxCell id="H_baRf7KBt0K7RaULhYe-198" style="edgeStyle=none;shape=connector;rounded=0;orthogonalLoop=1;jettySize=auto;html=1;entryX=1;entryY=1;entryDx=0;entryDy=0;strokeColor=default;align=center;verticalAlign=middle;fontFamily=Helvetica;fontSize=11;fontColor=default;labelBackgroundColor=default;endArrow=none;endFill=0;startArrow=openAsync;startFill=0;" edge="1" parent="1" source="H_baRf7KBt0K7RaULhYe-199" target="H_baRf7KBt0K7RaULhYe-205">
          <mxGeometry relative="1" as="geometry" />
        </mxCell>
        <mxCell id="H_baRf7KBt0K7RaULhYe-199" value="H" style="ellipse;whiteSpace=wrap;html=1;aspect=fixed;fillColor=#dae8fc;strokeColor=#6c8ebf;" vertex="1" parent="1">
          <mxGeometry x="797" y="555" width="30" height="30" as="geometry" />
        </mxCell>
        <mxCell id="H_baRf7KBt0K7RaULhYe-200" style="edgeStyle=none;shape=connector;rounded=0;orthogonalLoop=1;jettySize=auto;html=1;entryX=0.5;entryY=0;entryDx=0;entryDy=0;strokeColor=default;align=center;verticalAlign=middle;fontFamily=Helvetica;fontSize=11;fontColor=default;labelBackgroundColor=default;endArrow=none;endFill=0;" edge="1" parent="1" source="H_baRf7KBt0K7RaULhYe-201" target="H_baRf7KBt0K7RaULhYe-204">
          <mxGeometry relative="1" as="geometry" />
        </mxCell>
        <mxCell id="H_baRf7KBt0K7RaULhYe-201" value="C" style="ellipse;whiteSpace=wrap;html=1;aspect=fixed;" vertex="1" parent="1">
          <mxGeometry x="797" y="405" width="30" height="30" as="geometry" />
        </mxCell>
        <mxCell id="H_baRf7KBt0K7RaULhYe-202" style="edgeStyle=none;shape=connector;rounded=0;orthogonalLoop=1;jettySize=auto;html=1;entryX=1;entryY=0.5;entryDx=0;entryDy=0;strokeColor=default;align=center;verticalAlign=middle;fontFamily=Helvetica;fontSize=11;fontColor=default;labelBackgroundColor=default;endArrow=none;endFill=0;" edge="1" parent="1" source="H_baRf7KBt0K7RaULhYe-204" target="H_baRf7KBt0K7RaULhYe-208">
          <mxGeometry relative="1" as="geometry" />
        </mxCell>
        <mxCell id="H_baRf7KBt0K7RaULhYe-203" style="edgeStyle=none;shape=connector;rounded=0;orthogonalLoop=1;jettySize=auto;html=1;entryX=1;entryY=0;entryDx=0;entryDy=0;strokeColor=default;align=center;verticalAlign=middle;fontFamily=Helvetica;fontSize=11;fontColor=default;labelBackgroundColor=default;endArrow=none;endFill=0;startArrow=openAsync;startFill=0;" edge="1" parent="1" source="H_baRf7KBt0K7RaULhYe-204" target="H_baRf7KBt0K7RaULhYe-205">
          <mxGeometry relative="1" as="geometry" />
        </mxCell>
        <mxCell id="H_baRf7KBt0K7RaULhYe-204" value="F" style="ellipse;whiteSpace=wrap;html=1;aspect=fixed;fillColor=#dae8fc;strokeColor=#6c8ebf;" vertex="1" parent="1">
          <mxGeometry x="767" y="475" width="30" height="30" as="geometry" />
        </mxCell>
        <mxCell id="H_baRf7KBt0K7RaULhYe-205" value="G" style="ellipse;whiteSpace=wrap;html=1;aspect=fixed;fillColor=#dae8fc;strokeColor=#6c8ebf;" vertex="1" parent="1">
          <mxGeometry x="747" y="535" width="30" height="30" as="geometry" />
        </mxCell>
        <mxCell id="H_baRf7KBt0K7RaULhYe-206" style="rounded=0;orthogonalLoop=1;jettySize=auto;html=1;endArrow=none;endFill=0;entryX=0;entryY=0.5;entryDx=0;entryDy=0;" edge="1" parent="1" source="H_baRf7KBt0K7RaULhYe-207" target="H_baRf7KBt0K7RaULhYe-201">
          <mxGeometry relative="1" as="geometry">
            <mxPoint x="787" y="415" as="targetPoint" />
          </mxGeometry>
        </mxCell>
        <mxCell id="H_baRf7KBt0K7RaULhYe-207" value="E" style="ellipse;whiteSpace=wrap;html=1;aspect=fixed;" vertex="1" parent="1">
          <mxGeometry x="707" y="415" width="30" height="30" as="geometry" />
        </mxCell>
        <mxCell id="H_baRf7KBt0K7RaULhYe-208" value="I" style="ellipse;whiteSpace=wrap;html=1;aspect=fixed;" vertex="1" parent="1">
          <mxGeometry x="697" y="485" width="30" height="30" as="geometry" />
        </mxCell>
        <mxCell id="H_baRf7KBt0K7RaULhYe-262" style="edgeStyle=none;shape=connector;rounded=0;orthogonalLoop=1;jettySize=auto;html=1;entryX=0.706;entryY=-0.064;entryDx=0;entryDy=0;entryPerimeter=0;strokeColor=default;align=center;verticalAlign=middle;fontFamily=Helvetica;fontSize=11;fontColor=default;labelBackgroundColor=default;endArrow=openAsync;endFill=0;" edge="1" parent="1" source="H_baRf7KBt0K7RaULhYe-131" target="H_baRf7KBt0K7RaULhYe-137">
          <mxGeometry relative="1" as="geometry" />
        </mxCell>
        <mxCell id="H_baRf7KBt0K7RaULhYe-263" style="edgeStyle=none;shape=connector;rounded=0;orthogonalLoop=1;jettySize=auto;html=1;entryX=0;entryY=0.5;entryDx=0;entryDy=0;strokeColor=default;align=center;verticalAlign=middle;fontFamily=Helvetica;fontSize=11;fontColor=default;labelBackgroundColor=default;endArrow=openAsync;endFill=0;" edge="1" parent="1" source="H_baRf7KBt0K7RaULhYe-264" target="H_baRf7KBt0K7RaULhYe-298">
          <mxGeometry relative="1" as="geometry" />
        </mxCell>
        <mxCell id="H_baRf7KBt0K7RaULhYe-264" value="A" style="ellipse;whiteSpace=wrap;html=1;aspect=fixed;" vertex="1" parent="1">
          <mxGeometry x="760.5" y="220" width="30" height="30" as="geometry" />
        </mxCell>
        <mxCell id="H_baRf7KBt0K7RaULhYe-265" style="edgeStyle=none;shape=connector;rounded=0;orthogonalLoop=1;jettySize=auto;html=1;entryX=0;entryY=0;entryDx=0;entryDy=0;strokeColor=default;align=center;verticalAlign=middle;fontFamily=Helvetica;fontSize=11;fontColor=default;labelBackgroundColor=default;endArrow=openAsync;endFill=0;" edge="1" parent="1" source="H_baRf7KBt0K7RaULhYe-266" target="H_baRf7KBt0K7RaULhYe-298">
          <mxGeometry relative="1" as="geometry" />
        </mxCell>
        <mxCell id="H_baRf7KBt0K7RaULhYe-266" value="B" style="ellipse;whiteSpace=wrap;html=1;aspect=fixed;" vertex="1" parent="1">
          <mxGeometry x="803.5" y="220" width="30" height="30" as="geometry" />
        </mxCell>
        <mxCell id="H_baRf7KBt0K7RaULhYe-267" style="edgeStyle=none;shape=connector;rounded=0;orthogonalLoop=1;jettySize=auto;html=1;entryX=0;entryY=0;entryDx=0;entryDy=0;strokeColor=default;align=center;verticalAlign=middle;fontFamily=Helvetica;fontSize=11;fontColor=default;labelBackgroundColor=default;endArrow=openAsync;endFill=0;" edge="1" parent="1" source="H_baRf7KBt0K7RaULhYe-269" target="H_baRf7KBt0K7RaULhYe-300">
          <mxGeometry relative="1" as="geometry" />
        </mxCell>
        <mxCell id="H_baRf7KBt0K7RaULhYe-268" style="edgeStyle=none;shape=connector;rounded=0;orthogonalLoop=1;jettySize=auto;html=1;entryX=0;entryY=0;entryDx=0;entryDy=0;strokeColor=default;align=center;verticalAlign=middle;fontFamily=Helvetica;fontSize=11;fontColor=default;labelBackgroundColor=default;endArrow=openAsync;endFill=0;" edge="1" parent="1" source="H_baRf7KBt0K7RaULhYe-269" target="H_baRf7KBt0K7RaULhYe-305">
          <mxGeometry relative="1" as="geometry" />
        </mxCell>
        <mxCell id="H_baRf7KBt0K7RaULhYe-269" value="C" style="ellipse;whiteSpace=wrap;html=1;aspect=fixed;" vertex="1" parent="1">
          <mxGeometry x="845.5" y="220" width="30" height="30" as="geometry" />
        </mxCell>
        <mxCell id="H_baRf7KBt0K7RaULhYe-270" style="edgeStyle=none;shape=connector;rounded=0;orthogonalLoop=1;jettySize=auto;html=1;entryX=0.5;entryY=0;entryDx=0;entryDy=0;strokeColor=default;align=center;verticalAlign=middle;fontFamily=Helvetica;fontSize=11;fontColor=default;labelBackgroundColor=default;endArrow=openAsync;endFill=0;" edge="1" parent="1" source="H_baRf7KBt0K7RaULhYe-273" target="H_baRf7KBt0K7RaULhYe-289">
          <mxGeometry relative="1" as="geometry" />
        </mxCell>
        <mxCell id="H_baRf7KBt0K7RaULhYe-271" style="edgeStyle=none;shape=connector;rounded=0;orthogonalLoop=1;jettySize=auto;html=1;entryX=0.5;entryY=0;entryDx=0;entryDy=0;strokeColor=#6C8EBF;align=center;verticalAlign=middle;fontFamily=Helvetica;fontSize=11;fontColor=default;labelBackgroundColor=default;endArrow=openAsync;endFill=0;" edge="1" parent="1" source="H_baRf7KBt0K7RaULhYe-273" target="H_baRf7KBt0K7RaULhYe-291">
          <mxGeometry relative="1" as="geometry" />
        </mxCell>
        <mxCell id="H_baRf7KBt0K7RaULhYe-272" style="edgeStyle=none;shape=connector;rounded=0;orthogonalLoop=1;jettySize=auto;html=1;entryX=0.5;entryY=0;entryDx=0;entryDy=0;strokeColor=default;align=center;verticalAlign=middle;fontFamily=Helvetica;fontSize=11;fontColor=default;labelBackgroundColor=default;endArrow=openAsync;endFill=0;" edge="1" parent="1" source="H_baRf7KBt0K7RaULhYe-273" target="H_baRf7KBt0K7RaULhYe-305">
          <mxGeometry relative="1" as="geometry" />
        </mxCell>
        <mxCell id="H_baRf7KBt0K7RaULhYe-273" value="D" style="ellipse;whiteSpace=wrap;html=1;aspect=fixed;fillColor=#ffe6cc;strokeColor=#d79b00;" vertex="1" parent="1">
          <mxGeometry x="888.5" y="220" width="30" height="30" as="geometry" />
        </mxCell>
        <mxCell id="H_baRf7KBt0K7RaULhYe-274" style="edgeStyle=none;shape=connector;rounded=0;orthogonalLoop=1;jettySize=auto;html=1;entryX=0.5;entryY=0;entryDx=0;entryDy=0;strokeColor=default;align=center;verticalAlign=middle;fontFamily=Helvetica;fontSize=11;fontColor=default;labelBackgroundColor=default;endArrow=openAsync;endFill=0;" edge="1" parent="1" source="H_baRf7KBt0K7RaULhYe-275" target="H_baRf7KBt0K7RaULhYe-294">
          <mxGeometry relative="1" as="geometry" />
        </mxCell>
        <mxCell id="H_baRf7KBt0K7RaULhYe-275" value="E" style="ellipse;whiteSpace=wrap;html=1;aspect=fixed;" vertex="1" parent="1">
          <mxGeometry x="930.5" y="220" width="30" height="30" as="geometry" />
        </mxCell>
        <mxCell id="H_baRf7KBt0K7RaULhYe-276" style="edgeStyle=none;shape=connector;rounded=0;orthogonalLoop=1;jettySize=auto;html=1;entryX=1;entryY=0;entryDx=0;entryDy=0;strokeColor=default;align=center;verticalAlign=middle;fontFamily=Helvetica;fontSize=11;fontColor=default;labelBackgroundColor=default;endArrow=openAsync;endFill=0;" edge="1" parent="1" source="H_baRf7KBt0K7RaULhYe-280" target="H_baRf7KBt0K7RaULhYe-294">
          <mxGeometry relative="1" as="geometry" />
        </mxCell>
        <mxCell id="H_baRf7KBt0K7RaULhYe-277" style="edgeStyle=none;shape=connector;rounded=0;orthogonalLoop=1;jettySize=auto;html=1;entryX=0.5;entryY=0;entryDx=0;entryDy=0;strokeColor=#6C8EBF;align=center;verticalAlign=middle;fontFamily=Helvetica;fontSize=11;fontColor=default;labelBackgroundColor=default;endArrow=openAsync;endFill=0;" edge="1" parent="1" source="H_baRf7KBt0K7RaULhYe-280" target="H_baRf7KBt0K7RaULhYe-298">
          <mxGeometry relative="1" as="geometry" />
        </mxCell>
        <mxCell id="H_baRf7KBt0K7RaULhYe-278" style="edgeStyle=none;shape=connector;rounded=0;orthogonalLoop=1;jettySize=auto;html=1;entryX=0;entryY=0;entryDx=0;entryDy=0;strokeColor=default;align=center;verticalAlign=middle;fontFamily=Helvetica;fontSize=11;fontColor=default;labelBackgroundColor=default;endArrow=openAsync;endFill=0;" edge="1" parent="1" source="H_baRf7KBt0K7RaULhYe-280" target="H_baRf7KBt0K7RaULhYe-307">
          <mxGeometry relative="1" as="geometry" />
        </mxCell>
        <mxCell id="H_baRf7KBt0K7RaULhYe-279" style="edgeStyle=none;shape=connector;rounded=0;orthogonalLoop=1;jettySize=auto;html=1;entryX=0.5;entryY=0;entryDx=0;entryDy=0;strokeColor=default;align=center;verticalAlign=middle;fontFamily=Helvetica;fontSize=11;fontColor=default;labelBackgroundColor=default;endArrow=openAsync;endFill=0;" edge="1" parent="1" source="H_baRf7KBt0K7RaULhYe-280" target="H_baRf7KBt0K7RaULhYe-310">
          <mxGeometry relative="1" as="geometry" />
        </mxCell>
        <mxCell id="H_baRf7KBt0K7RaULhYe-280" value="F" style="ellipse;whiteSpace=wrap;html=1;aspect=fixed;fillColor=#ffe6cc;strokeColor=#d79b00;" vertex="1" parent="1">
          <mxGeometry x="973.5" y="220" width="30" height="30" as="geometry" />
        </mxCell>
        <mxCell id="H_baRf7KBt0K7RaULhYe-281" style="edgeStyle=none;shape=connector;rounded=0;orthogonalLoop=1;jettySize=auto;html=1;entryX=1;entryY=0;entryDx=0;entryDy=0;strokeColor=default;align=center;verticalAlign=middle;fontFamily=Helvetica;fontSize=11;fontColor=default;labelBackgroundColor=default;endArrow=openAsync;endFill=0;" edge="1" parent="1" source="H_baRf7KBt0K7RaULhYe-283" target="H_baRf7KBt0K7RaULhYe-305">
          <mxGeometry relative="1" as="geometry" />
        </mxCell>
        <mxCell id="H_baRf7KBt0K7RaULhYe-282" style="edgeStyle=none;shape=connector;rounded=0;orthogonalLoop=1;jettySize=auto;html=1;entryX=0;entryY=0;entryDx=0;entryDy=0;strokeColor=default;align=center;verticalAlign=middle;fontFamily=Helvetica;fontSize=11;fontColor=default;labelBackgroundColor=default;endArrow=openAsync;endFill=0;" edge="1" parent="1" source="H_baRf7KBt0K7RaULhYe-283" target="H_baRf7KBt0K7RaULhYe-309">
          <mxGeometry relative="1" as="geometry" />
        </mxCell>
        <mxCell id="H_baRf7KBt0K7RaULhYe-283" value="G" style="ellipse;whiteSpace=wrap;html=1;aspect=fixed;" vertex="1" parent="1">
          <mxGeometry x="1015.5" y="220" width="30" height="30" as="geometry" />
        </mxCell>
        <mxCell id="H_baRf7KBt0K7RaULhYe-284" style="edgeStyle=none;shape=connector;rounded=0;orthogonalLoop=1;jettySize=auto;html=1;entryX=0.5;entryY=0;entryDx=0;entryDy=0;strokeColor=default;align=center;verticalAlign=middle;fontFamily=Helvetica;fontSize=11;fontColor=default;labelBackgroundColor=default;endArrow=openAsync;endFill=0;" edge="1" parent="1" source="H_baRf7KBt0K7RaULhYe-285" target="H_baRf7KBt0K7RaULhYe-307">
          <mxGeometry relative="1" as="geometry" />
        </mxCell>
        <mxCell id="H_baRf7KBt0K7RaULhYe-285" value="H" style="ellipse;whiteSpace=wrap;html=1;aspect=fixed;" vertex="1" parent="1">
          <mxGeometry x="1058.5" y="220" width="30" height="30" as="geometry" />
        </mxCell>
        <mxCell id="H_baRf7KBt0K7RaULhYe-286" style="edgeStyle=none;shape=connector;rounded=0;orthogonalLoop=1;jettySize=auto;html=1;strokeColor=default;align=center;verticalAlign=middle;fontFamily=Helvetica;fontSize=11;fontColor=default;labelBackgroundColor=default;endArrow=openAsync;endFill=0;" edge="1" parent="1" source="H_baRf7KBt0K7RaULhYe-287">
          <mxGeometry relative="1" as="geometry">
            <mxPoint x="990.5" y="268" as="targetPoint" />
          </mxGeometry>
        </mxCell>
        <mxCell id="H_baRf7KBt0K7RaULhYe-287" value="I" style="ellipse;whiteSpace=wrap;html=1;aspect=fixed;" vertex="1" parent="1">
          <mxGeometry x="1100.5" y="220" width="30" height="30" as="geometry" />
        </mxCell>
        <mxCell id="H_baRf7KBt0K7RaULhYe-288" style="edgeStyle=none;shape=connector;rounded=0;orthogonalLoop=1;jettySize=auto;html=1;entryX=0;entryY=0;entryDx=0;entryDy=0;strokeColor=default;align=center;verticalAlign=middle;fontFamily=Helvetica;fontSize=11;fontColor=default;labelBackgroundColor=default;endArrow=openAsync;endFill=0;" edge="1" parent="1" source="H_baRf7KBt0K7RaULhYe-289" target="H_baRf7KBt0K7RaULhYe-314">
          <mxGeometry relative="1" as="geometry" />
        </mxCell>
        <mxCell id="H_baRf7KBt0K7RaULhYe-289" value="A" style="ellipse;whiteSpace=wrap;html=1;aspect=fixed;" vertex="1" parent="1">
          <mxGeometry x="760.5" y="270" width="30" height="30" as="geometry" />
        </mxCell>
        <mxCell id="H_baRf7KBt0K7RaULhYe-290" style="edgeStyle=none;shape=connector;rounded=0;orthogonalLoop=1;jettySize=auto;html=1;entryX=0.5;entryY=0;entryDx=0;entryDy=0;strokeColor=#82B366;align=center;verticalAlign=middle;fontFamily=Helvetica;fontSize=11;fontColor=default;labelBackgroundColor=default;endArrow=openAsync;endFill=0;" edge="1" parent="1" source="H_baRf7KBt0K7RaULhYe-291" target="H_baRf7KBt0K7RaULhYe-314">
          <mxGeometry relative="1" as="geometry" />
        </mxCell>
        <mxCell id="H_baRf7KBt0K7RaULhYe-291" value="B" style="ellipse;whiteSpace=wrap;html=1;aspect=fixed;fillColor=#dae8fc;strokeColor=#6c8ebf;" vertex="1" parent="1">
          <mxGeometry x="803.5" y="270" width="30" height="30" as="geometry" />
        </mxCell>
        <mxCell id="H_baRf7KBt0K7RaULhYe-292" style="edgeStyle=none;shape=connector;rounded=0;orthogonalLoop=1;jettySize=auto;html=1;strokeColor=default;align=center;verticalAlign=middle;fontFamily=Helvetica;fontSize=11;fontColor=default;labelBackgroundColor=default;endArrow=openAsync;endFill=0;" edge="1" parent="1" source="H_baRf7KBt0K7RaULhYe-294" target="H_baRf7KBt0K7RaULhYe-315">
          <mxGeometry relative="1" as="geometry" />
        </mxCell>
        <mxCell id="H_baRf7KBt0K7RaULhYe-293" style="edgeStyle=none;shape=connector;rounded=0;orthogonalLoop=1;jettySize=auto;html=1;entryX=0;entryY=0;entryDx=0;entryDy=0;strokeColor=default;align=center;verticalAlign=middle;fontFamily=Helvetica;fontSize=11;fontColor=default;labelBackgroundColor=default;endArrow=openAsync;endFill=0;" edge="1" parent="1" source="H_baRf7KBt0K7RaULhYe-294" target="H_baRf7KBt0K7RaULhYe-316">
          <mxGeometry relative="1" as="geometry" />
        </mxCell>
        <mxCell id="H_baRf7KBt0K7RaULhYe-294" value="C" style="ellipse;whiteSpace=wrap;html=1;aspect=fixed;" vertex="1" parent="1">
          <mxGeometry x="845.5" y="270" width="30" height="30" as="geometry" />
        </mxCell>
        <mxCell id="H_baRf7KBt0K7RaULhYe-295" style="edgeStyle=none;shape=connector;rounded=0;orthogonalLoop=1;jettySize=auto;html=1;entryX=0.5;entryY=0;entryDx=0;entryDy=0;strokeColor=#82B366;align=center;verticalAlign=middle;fontFamily=Helvetica;fontSize=11;fontColor=default;labelBackgroundColor=default;endArrow=openAsync;endFill=0;" edge="1" parent="1" source="H_baRf7KBt0K7RaULhYe-298" target="H_baRf7KBt0K7RaULhYe-311">
          <mxGeometry relative="1" as="geometry" />
        </mxCell>
        <mxCell id="H_baRf7KBt0K7RaULhYe-296" style="edgeStyle=none;shape=connector;rounded=0;orthogonalLoop=1;jettySize=auto;html=1;entryX=0.5;entryY=0;entryDx=0;entryDy=0;strokeColor=#82B366;align=center;verticalAlign=middle;fontFamily=Helvetica;fontSize=11;fontColor=default;labelBackgroundColor=default;endArrow=openAsync;endFill=0;" edge="1" parent="1" source="H_baRf7KBt0K7RaULhYe-298" target="H_baRf7KBt0K7RaULhYe-312">
          <mxGeometry relative="1" as="geometry" />
        </mxCell>
        <mxCell id="H_baRf7KBt0K7RaULhYe-297" style="edgeStyle=none;shape=connector;rounded=0;orthogonalLoop=1;jettySize=auto;html=1;entryX=0.5;entryY=0;entryDx=0;entryDy=0;strokeColor=default;align=center;verticalAlign=middle;fontFamily=Helvetica;fontSize=11;fontColor=default;labelBackgroundColor=default;endArrow=openAsync;endFill=0;" edge="1" parent="1" source="H_baRf7KBt0K7RaULhYe-298" target="H_baRf7KBt0K7RaULhYe-316">
          <mxGeometry relative="1" as="geometry" />
        </mxCell>
        <mxCell id="H_baRf7KBt0K7RaULhYe-298" value="D" style="ellipse;whiteSpace=wrap;html=1;aspect=fixed;fillColor=#dae8fc;strokeColor=#6c8ebf;" vertex="1" parent="1">
          <mxGeometry x="888.5" y="270" width="30" height="30" as="geometry" />
        </mxCell>
        <mxCell id="H_baRf7KBt0K7RaULhYe-299" style="edgeStyle=none;shape=connector;rounded=0;orthogonalLoop=1;jettySize=auto;html=1;strokeColor=default;align=center;verticalAlign=middle;fontFamily=Helvetica;fontSize=11;fontColor=default;labelBackgroundColor=default;endArrow=openAsync;endFill=0;" edge="1" parent="1" source="H_baRf7KBt0K7RaULhYe-300">
          <mxGeometry relative="1" as="geometry">
            <mxPoint x="860.5000000000002" y="320" as="targetPoint" />
          </mxGeometry>
        </mxCell>
        <mxCell id="H_baRf7KBt0K7RaULhYe-300" value="E" style="ellipse;whiteSpace=wrap;html=1;aspect=fixed;" vertex="1" parent="1">
          <mxGeometry x="930.5" y="270" width="30" height="30" as="geometry" />
        </mxCell>
        <mxCell id="H_baRf7KBt0K7RaULhYe-301" style="edgeStyle=none;shape=connector;rounded=0;orthogonalLoop=1;jettySize=auto;html=1;entryX=1;entryY=0;entryDx=0;entryDy=0;strokeColor=#82B366;align=center;verticalAlign=middle;fontFamily=Helvetica;fontSize=11;fontColor=default;labelBackgroundColor=default;endArrow=openAsync;endFill=0;" edge="1" parent="1" source="H_baRf7KBt0K7RaULhYe-305" target="H_baRf7KBt0K7RaULhYe-313">
          <mxGeometry relative="1" as="geometry" />
        </mxCell>
        <mxCell id="H_baRf7KBt0K7RaULhYe-302" style="edgeStyle=none;shape=connector;rounded=0;orthogonalLoop=1;jettySize=auto;html=1;strokeColor=default;align=center;verticalAlign=middle;fontFamily=Helvetica;fontSize=11;fontColor=default;labelBackgroundColor=default;endArrow=openAsync;endFill=0;" edge="1" parent="1" source="H_baRf7KBt0K7RaULhYe-305">
          <mxGeometry relative="1" as="geometry">
            <mxPoint x="910.5000000000002" y="320" as="targetPoint" />
          </mxGeometry>
        </mxCell>
        <mxCell id="H_baRf7KBt0K7RaULhYe-303" style="edgeStyle=none;shape=connector;rounded=0;orthogonalLoop=1;jettySize=auto;html=1;entryX=0;entryY=0;entryDx=0;entryDy=0;strokeColor=default;align=center;verticalAlign=middle;fontFamily=Helvetica;fontSize=11;fontColor=default;labelBackgroundColor=default;endArrow=openAsync;endFill=0;" edge="1" parent="1" source="H_baRf7KBt0K7RaULhYe-305" target="H_baRf7KBt0K7RaULhYe-317">
          <mxGeometry relative="1" as="geometry" />
        </mxCell>
        <mxCell id="H_baRf7KBt0K7RaULhYe-304" style="edgeStyle=none;shape=connector;rounded=0;orthogonalLoop=1;jettySize=auto;html=1;entryX=0;entryY=0;entryDx=0;entryDy=0;strokeColor=#82B366;align=center;verticalAlign=middle;fontFamily=Helvetica;fontSize=11;fontColor=default;labelBackgroundColor=default;endArrow=openAsync;endFill=0;" edge="1" parent="1" source="H_baRf7KBt0K7RaULhYe-305" target="H_baRf7KBt0K7RaULhYe-319">
          <mxGeometry relative="1" as="geometry" />
        </mxCell>
        <mxCell id="H_baRf7KBt0K7RaULhYe-305" value="F" style="ellipse;whiteSpace=wrap;html=1;aspect=fixed;fillColor=#dae8fc;strokeColor=#6c8ebf;" vertex="1" parent="1">
          <mxGeometry x="973.5" y="270" width="30" height="30" as="geometry" />
        </mxCell>
        <mxCell id="H_baRf7KBt0K7RaULhYe-306" style="edgeStyle=none;shape=connector;rounded=0;orthogonalLoop=1;jettySize=auto;html=1;entryX=1;entryY=0;entryDx=0;entryDy=0;strokeColor=#82B366;align=center;verticalAlign=middle;fontFamily=Helvetica;fontSize=11;fontColor=default;labelBackgroundColor=default;endArrow=openAsync;endFill=0;" edge="1" parent="1" source="H_baRf7KBt0K7RaULhYe-307" target="H_baRf7KBt0K7RaULhYe-316">
          <mxGeometry relative="1" as="geometry" />
        </mxCell>
        <mxCell id="H_baRf7KBt0K7RaULhYe-322" style="edgeStyle=none;shape=connector;rounded=0;orthogonalLoop=1;jettySize=auto;html=1;entryX=0;entryY=0;entryDx=0;entryDy=0;strokeColor=#82B366;align=center;verticalAlign=middle;fontFamily=Helvetica;fontSize=11;fontColor=default;labelBackgroundColor=default;endArrow=openAsync;endFill=0;" edge="1" parent="1" source="H_baRf7KBt0K7RaULhYe-307" target="H_baRf7KBt0K7RaULhYe-318">
          <mxGeometry relative="1" as="geometry" />
        </mxCell>
        <mxCell id="H_baRf7KBt0K7RaULhYe-307" value="G" style="ellipse;whiteSpace=wrap;html=1;aspect=fixed;fillColor=#dae8fc;strokeColor=#6c8ebf;" vertex="1" parent="1">
          <mxGeometry x="1015.5" y="270" width="30" height="30" as="geometry" />
        </mxCell>
        <mxCell id="H_baRf7KBt0K7RaULhYe-308" style="edgeStyle=none;shape=connector;rounded=0;orthogonalLoop=1;jettySize=auto;html=1;entryX=0.5;entryY=0;entryDx=0;entryDy=0;strokeColor=default;align=center;verticalAlign=middle;fontFamily=Helvetica;fontSize=11;fontColor=default;labelBackgroundColor=default;endArrow=openAsync;endFill=0;" edge="1" parent="1" source="H_baRf7KBt0K7RaULhYe-309" target="H_baRf7KBt0K7RaULhYe-317">
          <mxGeometry relative="1" as="geometry" />
        </mxCell>
        <mxCell id="H_baRf7KBt0K7RaULhYe-309" value="H" style="ellipse;whiteSpace=wrap;html=1;aspect=fixed;" vertex="1" parent="1">
          <mxGeometry x="1058.5" y="270" width="30" height="30" as="geometry" />
        </mxCell>
        <mxCell id="H_baRf7KBt0K7RaULhYe-310" value="I" style="ellipse;whiteSpace=wrap;html=1;aspect=fixed;" vertex="1" parent="1">
          <mxGeometry x="1100.5" y="270" width="30" height="30" as="geometry" />
        </mxCell>
        <mxCell id="H_baRf7KBt0K7RaULhYe-311" value="A" style="ellipse;whiteSpace=wrap;html=1;aspect=fixed;fillColor=#d5e8d4;strokeColor=#82b366;" vertex="1" parent="1">
          <mxGeometry x="760.5" y="320" width="30" height="30" as="geometry" />
        </mxCell>
        <mxCell id="H_baRf7KBt0K7RaULhYe-312" value="B" style="ellipse;whiteSpace=wrap;html=1;aspect=fixed;fillColor=#d5e8d4;strokeColor=#82b366;" vertex="1" parent="1">
          <mxGeometry x="803.5" y="320" width="30" height="30" as="geometry" />
        </mxCell>
        <mxCell id="H_baRf7KBt0K7RaULhYe-313" value="C" style="ellipse;whiteSpace=wrap;html=1;aspect=fixed;fillColor=#d5e8d4;strokeColor=#82b366;" vertex="1" parent="1">
          <mxGeometry x="845.5" y="320" width="30" height="30" as="geometry" />
        </mxCell>
        <mxCell id="H_baRf7KBt0K7RaULhYe-314" value="D" style="ellipse;whiteSpace=wrap;html=1;aspect=fixed;fillColor=#d5e8d4;strokeColor=#82b366;" vertex="1" parent="1">
          <mxGeometry x="888.5" y="320" width="30" height="30" as="geometry" />
        </mxCell>
        <mxCell id="H_baRf7KBt0K7RaULhYe-315" value="E" style="ellipse;whiteSpace=wrap;html=1;aspect=fixed;" vertex="1" parent="1">
          <mxGeometry x="930.5" y="320" width="30" height="30" as="geometry" />
        </mxCell>
        <mxCell id="H_baRf7KBt0K7RaULhYe-316" value="F" style="ellipse;whiteSpace=wrap;html=1;aspect=fixed;fillColor=#d5e8d4;strokeColor=#82b366;" vertex="1" parent="1">
          <mxGeometry x="973.5" y="320" width="30" height="30" as="geometry" />
        </mxCell>
        <mxCell id="H_baRf7KBt0K7RaULhYe-317" value="G" style="ellipse;whiteSpace=wrap;html=1;aspect=fixed;" vertex="1" parent="1">
          <mxGeometry x="1015.5" y="320" width="30" height="30" as="geometry" />
        </mxCell>
        <mxCell id="H_baRf7KBt0K7RaULhYe-318" value="H" style="ellipse;whiteSpace=wrap;html=1;aspect=fixed;fillColor=#d5e8d4;strokeColor=#82b366;" vertex="1" parent="1">
          <mxGeometry x="1058.5" y="320" width="30" height="30" as="geometry" />
        </mxCell>
        <mxCell id="H_baRf7KBt0K7RaULhYe-319" value="I" style="ellipse;whiteSpace=wrap;html=1;aspect=fixed;fillColor=#d5e8d4;strokeColor=#82b366;" vertex="1" parent="1">
          <mxGeometry x="1100.5" y="320" width="30" height="30" as="geometry" />
        </mxCell>
        <mxCell id="H_baRf7KBt0K7RaULhYe-320" style="edgeStyle=none;shape=connector;rounded=0;orthogonalLoop=1;jettySize=auto;html=1;entryX=0.706;entryY=-0.064;entryDx=0;entryDy=0;entryPerimeter=0;strokeColor=default;align=center;verticalAlign=middle;fontFamily=Helvetica;fontSize=11;fontColor=default;labelBackgroundColor=default;endArrow=openAsync;endFill=0;" edge="1" parent="1" source="H_baRf7KBt0K7RaULhYe-310" target="H_baRf7KBt0K7RaULhYe-316">
          <mxGeometry relative="1" as="geometry" />
        </mxCell>
        <mxCell id="H_baRf7KBt0K7RaULhYe-323" value="&lt;font style=&quot;font-size: 20px;&quot;&gt;Full graph for training&lt;/font&gt;" style="text;html=1;align=center;verticalAlign=middle;whiteSpace=wrap;rounded=0;fontFamily=Helvetica;fontSize=11;fontColor=default;labelBackgroundColor=default;" vertex="1" parent="1">
          <mxGeometry x="-135" y="360" width="160" height="30" as="geometry" />
        </mxCell>
        <mxCell id="H_baRf7KBt0K7RaULhYe-324" value="&lt;font style=&quot;font-size: 20px;&quot;&gt;Node-wise&lt;/font&gt;&lt;div&gt;&lt;font style=&quot;font-size: 20px;&quot;&gt;sampling&lt;/font&gt;&lt;/div&gt;" style="text;html=1;align=center;verticalAlign=middle;whiteSpace=wrap;rounded=0;fontFamily=Helvetica;fontSize=11;fontColor=default;labelBackgroundColor=default;" vertex="1" parent="1">
          <mxGeometry x="110" y="10" width="160" height="30" as="geometry" />
        </mxCell>
        <mxCell id="H_baRf7KBt0K7RaULhYe-325" value="&lt;font style=&quot;font-size: 20px;&quot;&gt;Layer-wise&lt;/font&gt;&lt;div&gt;&lt;font style=&quot;font-size: 20px;&quot;&gt;sampling&lt;/font&gt;&lt;/div&gt;" style="text;html=1;align=center;verticalAlign=middle;whiteSpace=wrap;rounded=0;fontFamily=Helvetica;fontSize=11;fontColor=default;labelBackgroundColor=default;" vertex="1" parent="1">
          <mxGeometry x="110" y="210" width="160" height="30" as="geometry" />
        </mxCell>
        <mxCell id="H_baRf7KBt0K7RaULhYe-326" value="&lt;font style=&quot;font-size: 20px;&quot;&gt;Subgraph-based&lt;/font&gt;&lt;div&gt;&lt;font style=&quot;font-size: 20px;&quot;&gt;sampling&lt;/font&gt;&lt;/div&gt;" style="text;html=1;align=center;verticalAlign=middle;whiteSpace=wrap;rounded=0;fontFamily=Helvetica;fontSize=11;fontColor=default;labelBackgroundColor=default;" vertex="1" parent="1">
          <mxGeometry x="140" y="375" width="160" height="30" as="geometry" />
        </mxCell>
        <mxCell id="H_baRf7KBt0K7RaULhYe-327" value="" style="ellipse;whiteSpace=wrap;html=1;aspect=fixed;fillColor=#d5e8d4;strokeColor=#82b366;" vertex="1" parent="1">
          <mxGeometry x="1180" y="113" width="15" height="15" as="geometry" />
        </mxCell>
        <mxCell id="H_baRf7KBt0K7RaULhYe-331" value="" style="ellipse;whiteSpace=wrap;html=1;aspect=fixed;fillColor=#dae8fc;strokeColor=#6c8ebf;" vertex="1" parent="1">
          <mxGeometry x="1180" y="88" width="15" height="15" as="geometry" />
        </mxCell>
        <mxCell id="H_baRf7KBt0K7RaULhYe-332" value="" style="ellipse;whiteSpace=wrap;html=1;aspect=fixed;fillColor=#ffe6cc;strokeColor=#d79b00;" vertex="1" parent="1">
          <mxGeometry x="1180" y="63" width="15" height="15" as="geometry" />
        </mxCell>
        <mxCell id="H_baRf7KBt0K7RaULhYe-333" value="" style="endArrow=classic;html=1;rounded=0;strokeColor=default;align=center;verticalAlign=middle;fontFamily=Helvetica;fontSize=11;fontColor=default;labelBackgroundColor=default;edgeStyle=none;strokeWidth=3;" edge="1" parent="1">
          <mxGeometry width="50" height="50" relative="1" as="geometry">
            <mxPoint x="720" y="215" as="sourcePoint" />
            <mxPoint x="720" y="355" as="targetPoint" />
          </mxGeometry>
        </mxCell>
        <mxCell id="H_baRf7KBt0K7RaULhYe-334" value="&lt;font style=&quot;font-size: 20px;&quot;&gt;Top-down&lt;/font&gt;&lt;div&gt;&lt;span style=&quot;font-size: 20px;&quot;&gt;layer&lt;/span&gt;&lt;/div&gt;&lt;div&gt;&lt;span style=&quot;font-size: 20px;&quot;&gt;sampling&lt;/span&gt;&lt;/div&gt;" style="text;html=1;align=center;verticalAlign=middle;whiteSpace=wrap;rounded=0;fontFamily=Helvetica;fontSize=11;fontColor=default;labelBackgroundColor=default;" vertex="1" parent="1">
          <mxGeometry x="590" y="270" width="160" height="30" as="geometry" />
        </mxCell>
        <mxCell id="H_baRf7KBt0K7RaULhYe-335" value="" style="shape=flexArrow;endArrow=classic;html=1;rounded=0;strokeColor=default;align=center;verticalAlign=middle;fontFamily=Helvetica;fontSize=11;fontColor=default;labelBackgroundColor=default;edgeStyle=none;" edge="1" parent="1">
          <mxGeometry width="50" height="50" relative="1" as="geometry">
            <mxPoint x="493" y="485" as="sourcePoint" />
            <mxPoint x="643" y="485" as="targetPoint" />
          </mxGeometry>
        </mxCell>
        <mxCell id="H_baRf7KBt0K7RaULhYe-336" value="&lt;span style=&quot;font-size: 20px;&quot;&gt;Construct subgraph&lt;/span&gt;" style="text;html=1;align=center;verticalAlign=middle;whiteSpace=wrap;rounded=0;fontFamily=Helvetica;fontSize=11;fontColor=default;labelBackgroundColor=default;" vertex="1" parent="1">
          <mxGeometry x="480" y="425" width="160" height="30" as="geometry" />
        </mxCell>
      </root>
    </mxGraphModel>
  </diagram>
</mxfile>
